<?xml version="1.0" encoding="UTF-8"?>
<!DOCTYPE svg PUBLIC "-//W3C//DTD SVG 1.1//EN" "http://www.w3.org/Graphics/SVG/1.1/DTD/svg11.dtd">
<svg xmlns="http://www.w3.org/2000/svg" version="1.1" width="500px" height="500px" style="shape-rendering:geometricPrecision; text-rendering:geometricPrecision; image-rendering:optimizeQuality; fill-rule:evenodd; clip-rule:evenodd" xmlns:xlink="http://www.w3.org/1999/xlink">
<g><path style="opacity:0.216" fill="#808d9b" d="M 240.5,172.5 C 274.337,172.168 308.004,172.502 341.5,173.5C 341.631,174.376 341.298,175.043 340.5,175.5C 339.264,174.754 337.93,174.421 336.5,174.5C 336.167,174.5 335.833,174.5 335.5,174.5C 303.833,173.833 272.167,173.167 240.5,172.5 Z"/></g>
<g><path style="opacity:0.996" fill="#dfddd3" d="M 95.5,172.5 C 95.5,172.833 95.5,173.167 95.5,173.5C 95.5,173.833 95.5,174.167 95.5,174.5C 86.7794,174.225 78.1127,174.558 69.5,175.5C 70.0577,174.21 71.0577,173.377 72.5,173C 80.1594,172.5 87.8261,172.334 95.5,172.5 Z"/></g>
<g><path style="opacity:0.987" fill="#3a4960" d="M 168.5,172.5 C 192.5,172.5 216.5,172.5 240.5,172.5C 272.167,173.167 303.833,173.833 335.5,174.5C 280.833,174.5 226.167,174.5 171.5,174.5C 170.5,173.833 169.5,173.167 168.5,172.5 Z"/></g>
<g><path style="opacity:0.996" fill="#a5b2c2" d="M 151.5,174.5 C 158.167,174.5 164.833,174.5 171.5,174.5C 226.167,174.5 280.833,174.5 335.5,174.5C 335.833,174.5 336.167,174.5 336.5,174.5C 277.335,175.333 218.001,175.833 158.5,176C 160.708,176.191 162.708,176.691 164.5,177.5C 160.486,177.666 156.486,177.499 152.5,177C 151.748,176.329 151.414,175.496 151.5,174.5 Z"/></g>
<g><path style="opacity:1" fill="#42464c" d="M 131.5,172.5 C 143.833,172.5 156.167,172.5 168.5,172.5C 169.5,173.167 170.5,173.833 171.5,174.5C 164.833,174.5 158.167,174.5 151.5,174.5C 146.821,174.334 142.155,174.501 137.5,175C 139.577,175.192 141.577,175.692 143.5,176.5C 140.608,176.386 137.608,176.719 134.5,177.5C 133.167,177.5 131.833,177.5 130.5,177.5C 127.185,176.519 123.185,175.852 118.5,175.5C 117.833,175.5 117.167,175.5 116.5,175.5C 121.251,173.859 126.251,172.859 131.5,172.5 Z"/></g>
<g><path style="opacity:1" fill="#c9d8e2" d="M 341.5,173.5 C 343.41,174.975 344.576,176.975 345,179.5C 346.505,186.895 348.172,194.228 350,201.5C 350.854,204.592 352.354,207.259 354.5,209.5C 352.628,208.489 350.628,207.655 348.5,207C 348.026,205.271 347.026,204.105 345.5,203.5C 347.227,195.504 346.561,187.837 343.5,180.5C 325.16,179.233 306.327,178.567 287,178.5C 246.834,177.998 206.668,177.664 166.5,177.5C 165.833,177.5 165.167,177.5 164.5,177.5C 162.708,176.691 160.708,176.191 158.5,176C 218.001,175.833 277.335,175.333 336.5,174.5C 337.93,174.421 339.264,174.754 340.5,175.5C 341.298,175.043 341.631,174.376 341.5,173.5 Z"/></g>
<g><path style="opacity:1" fill="#777f83" d="M 95.5,174.5 C 95.762,175.978 95.4287,177.311 94.5,178.5C 89.2202,179.618 83.8869,179.784 78.5,179C 76.3149,175.98 73.8149,175.814 71,178.5C 70.4867,177.473 69.9867,176.473 69.5,175.5C 78.1127,174.558 86.7794,174.225 95.5,174.5 Z"/></g>
<g><path style="opacity:1" fill="#6f6e6b" d="M 118.5,175.5 C 123.185,175.852 127.185,176.519 130.5,177.5C 128.813,179.166 126.813,180.5 124.5,181.5C 120.924,181.075 117.424,181.075 114,181.5C 111.363,180.899 110.196,179.233 110.5,176.5C 113.385,176.806 116.052,176.473 118.5,175.5 Z"/></g>
<g><path style="opacity:1" fill="#8fa8b9" d="M 166.5,177.5 C 206.668,177.664 246.834,177.998 287,178.5C 306.327,178.567 325.16,179.233 343.5,180.5C 342.791,181.404 341.791,181.737 340.5,181.5C 340.433,182.959 340.766,184.292 341.5,185.5C 340.833,186.167 340.167,186.833 339.5,187.5C 339.28,184.487 337.947,182.153 335.5,180.5C 334.817,180.863 334.15,181.196 333.5,181.5C 277.684,181.031 222.017,179.698 166.5,177.5 Z"/></g>
<g><path style="opacity:1" fill="#5b7487" d="M 151.5,174.5 C 151.414,175.496 151.748,176.329 152.5,177C 156.486,177.499 160.486,177.666 164.5,177.5C 165.167,177.5 165.833,177.5 166.5,177.5C 222.017,179.698 277.684,181.031 333.5,181.5C 326.167,181.5 318.833,181.5 311.5,181.5C 261.164,181.483 210.831,181.15 160.5,180.5C 151.568,178.6 142.568,178.267 133.5,179.5C 133.833,178.833 134.167,178.167 134.5,177.5C 137.608,176.719 140.608,176.386 143.5,176.5C 141.577,175.692 139.577,175.192 137.5,175C 142.155,174.501 146.821,174.334 151.5,174.5 Z"/></g>
<g><path style="opacity:1" fill="#3b4d5e" d="M 160.5,180.5 C 210.831,181.15 261.164,181.483 311.5,181.5C 314.305,182.319 317.305,182.819 320.5,183C 295.502,183.5 270.502,183.667 245.5,183.5C 216.982,183.276 188.648,182.276 160.5,180.5 Z"/></g>
<g><path style="opacity:1" fill="#373d43" d="M 160.5,180.5 C 188.648,182.276 216.982,183.276 245.5,183.5C 241.822,185.082 237.989,185.415 234,184.5C 223.867,185.703 213.7,186.369 203.5,186.5C 186.163,186.667 168.83,186.5 151.5,186C 143.827,185.267 136.493,183.433 129.5,180.5C 130.833,180.167 132.167,179.833 133.5,179.5C 142.568,178.267 151.568,178.6 160.5,180.5 Z"/></g>
<g><path style="opacity:1" fill="#556067" d="M 339.5,187.5 C 339.649,191.001 338.649,191.334 336.5,188.5C 335.852,186.914 335.352,185.247 335,183.5C 334.51,184.793 334.343,186.127 334.5,187.5C 290.833,187.5 247.167,187.5 203.5,187.5C 203.5,187.167 203.5,186.833 203.5,186.5C 213.7,186.369 223.867,185.703 234,184.5C 237.989,185.415 241.822,185.082 245.5,183.5C 270.502,183.667 295.502,183.5 320.5,183C 317.305,182.819 314.305,182.319 311.5,181.5C 318.833,181.5 326.167,181.5 333.5,181.5C 334.15,181.196 334.817,180.863 335.5,180.5C 337.947,182.153 339.28,184.487 339.5,187.5 Z"/></g>
<g><path style="opacity:1" fill="#404346" d="M 95.5,173.5 C 97.1667,173.5 98.8333,173.5 100.5,173.5C 101.377,176.752 102.043,180.085 102.5,183.5C 101.975,189.831 101.475,196.165 101,202.5C 100.722,203.416 100.222,204.082 99.5,204.5C 98.3383,197.169 98.1716,189.836 99,182.5C 97.8403,188.129 97.0069,193.796 96.5,199.5C 94.9328,200.681 94.0995,202.347 94,204.5C 93.7638,202.236 93.2638,200.069 92.5,198C 87.3122,199.085 81.9789,199.585 76.5,199.5C 76.6621,201.527 76.4955,203.527 76,205.5C 75.5008,200.845 75.3342,196.179 75.5,191.5C 82.5316,191.83 89.5316,191.497 96.5,190.5C 87.147,189.561 77.9803,189.228 69,189.5C 68.3333,190.5 68.3333,191.5 69,192.5C 70.3333,191.833 71.6667,191.167 73,190.5C 73.0047,195.147 72.838,199.814 72.5,204.5C 72.6655,208.514 72.4988,212.514 72,216.5C 71.6667,216.833 71.3333,217.167 71,217.5C 70.6667,214.167 70.3333,210.833 70,207.5C 69.3333,211.5 68.6667,211.5 68,207.5C 67.8238,211.688 67.3238,215.688 66.5,219.5C 66.5,211.167 66.5,202.833 66.5,194.5C 66.708,187.905 67.708,181.572 69.5,175.5C 69.9867,176.473 70.4867,177.473 71,178.5C 73.8149,175.814 76.3149,175.98 78.5,179C 83.8869,179.784 89.2202,179.618 94.5,178.5C 95.4287,177.311 95.762,175.978 95.5,174.5C 95.5,174.167 95.5,173.833 95.5,173.5 Z"/></g>
<g><path style="opacity:1" fill="#aaa79f" d="M 116.5,175.5 C 117.167,175.5 117.833,175.5 118.5,175.5C 116.052,176.473 113.385,176.806 110.5,176.5C 110.196,179.233 111.363,180.899 114,181.5C 117.424,181.075 120.924,181.075 124.5,181.5C 126.813,180.5 128.813,179.166 130.5,177.5C 131.833,177.5 133.167,177.5 134.5,177.5C 134.167,178.167 133.833,178.833 133.5,179.5C 132.167,179.833 130.833,180.167 129.5,180.5C 128.833,180.833 128.167,181.167 127.5,181.5C 124.114,182.261 121.947,184.261 121,187.5C 118.167,189.667 115.333,191.833 112.5,194C 115.402,193.354 118.402,192.521 121.5,191.5C 122.736,192.246 124.07,192.579 125.5,192.5C 124.942,193.79 123.942,194.623 122.5,195C 125.063,195.154 127.563,194.654 130,193.5C 131.88,193.802 132.38,194.469 131.5,195.5C 130.127,195.343 128.793,195.51 127.5,196C 129.044,196.29 130.377,196.956 131.5,198C 127.823,198.108 124.157,198.108 120.5,198C 121.833,198.333 123.167,198.667 124.5,199C 122.934,199.608 121.6,200.442 120.5,201.5C 119.566,200.432 119.232,199.099 119.5,197.5C 117.856,197.286 116.356,197.62 115,198.5C 114.558,196.321 113.558,195.655 112,196.5C 110.829,194.158 109.662,191.824 108.5,189.5C 108.483,192.014 107.983,194.681 107,197.5C 106.768,196.263 106.268,195.263 105.5,194.5C 104.203,190.999 104.203,187.499 105.5,184C 104.676,180.71 103.843,177.543 103,174.5C 104.734,175.249 106.567,175.749 108.5,176C 105.833,177 105.833,178 108.5,179C 108.335,180.117 108.002,181.284 107.5,182.5C 107.808,183.308 108.308,183.975 109,184.5C 109.498,181.518 109.665,178.518 109.5,175.5C 111.833,175.5 114.167,175.5 116.5,175.5 Z"/></g>
<g><path style="opacity:1" fill="#565654" d="M 129.5,180.5 C 136.493,183.433 143.827,185.267 151.5,186C 168.83,186.5 186.163,186.667 203.5,186.5C 203.5,186.833 203.5,187.167 203.5,187.5C 177.519,189.158 151.519,190.324 125.5,191C 127.878,190.489 130.212,189.822 132.5,189C 129.514,189.128 126.514,189.128 123.5,189C 128.621,187.577 128.621,186.577 123.5,186C 125.911,184.417 128.578,183.417 131.5,183C 129.942,182.79 128.609,182.29 127.5,181.5C 128.167,181.167 128.833,180.833 129.5,180.5 Z"/></g>
<g><path style="opacity:1" fill="#757574" d="M 127.5,181.5 C 128.609,182.29 129.942,182.79 131.5,183C 128.578,183.417 125.911,184.417 123.5,186C 128.621,186.577 128.621,187.577 123.5,189C 126.514,189.128 129.514,189.128 132.5,189C 130.212,189.822 127.878,190.489 125.5,191C 151.519,190.324 177.519,189.158 203.5,187.5C 247.167,187.5 290.833,187.5 334.5,187.5C 334.343,186.127 334.51,184.793 335,183.5C 335.352,185.247 335.852,186.914 336.5,188.5C 335.833,188.5 335.167,188.5 334.5,188.5C 287.823,188.591 241.489,189.591 195.5,191.5C 172.157,191.364 148.824,191.698 125.5,192.5C 124.07,192.579 122.736,192.246 121.5,191.5C 118.402,192.521 115.402,193.354 112.5,194C 115.333,191.833 118.167,189.667 121,187.5C 121.947,184.261 124.114,182.261 127.5,181.5 Z"/></g>
<g><path style="opacity:1" fill="#8f9191" d="M 334.5,188.5 C 332.708,189.309 330.708,189.809 328.5,190C 317.992,190.17 307.659,190.67 297.5,191.5C 287.833,191.5 278.167,191.5 268.5,191.5C 257.5,191.5 246.5,191.5 235.5,191.5C 231.167,191.5 226.833,191.5 222.5,191.5C 213.5,191.5 204.5,191.5 195.5,191.5C 241.489,189.591 287.823,188.591 334.5,188.5 Z"/></g>
<g><path style="opacity:0.993" fill="#6d727f" d="M 343.5,180.5 C 346.561,187.837 347.227,195.504 345.5,203.5C 345.818,208.032 345.485,212.366 344.5,216.5C 344.5,214.833 344.5,213.167 344.5,211.5C 344.158,202.746 343.158,194.079 341.5,185.5C 340.766,184.292 340.433,182.959 340.5,181.5C 341.791,181.737 342.791,181.404 343.5,180.5 Z"/></g>
<g><path style="opacity:1" fill="#636c70" d="M 222.5,191.5 C 226.833,191.5 231.167,191.5 235.5,191.5C 235.082,192.222 234.416,192.722 233.5,193C 214.587,195.331 195.587,197.664 176.5,200C 178.5,200.333 180.5,200.667 182.5,201C 169.485,201.474 156.819,203.474 144.5,207C 140.98,210.859 136.647,212.526 131.5,212C 133.5,210.333 135.5,208.667 137.5,207C 133.664,206.945 130.164,208.112 127,210.5C 126.79,208.942 126.29,207.609 125.5,206.5C 124.027,204.605 122.36,202.939 120.5,201.5C 121.6,200.442 122.934,199.608 124.5,199C 123.167,198.667 121.833,198.333 120.5,198C 124.157,198.108 127.823,198.108 131.5,198C 130.377,196.956 129.044,196.29 127.5,196C 128.793,195.51 130.127,195.343 131.5,195.5C 132.261,196.391 133.261,197.058 134.5,197.5C 135.451,196.674 136.451,196.508 137.5,197C 135.963,198.11 135.297,199.61 135.5,201.5C 146.788,201.75 157.788,200.25 168.5,197C 186.591,195.069 204.591,193.235 222.5,191.5 Z"/></g>
<g><path style="opacity:1" fill="#7c8b95" d="M 268.5,191.5 C 278.167,191.5 287.833,191.5 297.5,191.5C 311.504,191.333 325.504,191.5 339.5,192C 341.053,197.352 341.719,202.852 341.5,208.5C 341.5,209.5 341.5,210.5 341.5,211.5C 339.844,206.275 338.177,200.942 336.5,195.5C 335.833,196.167 335.167,196.833 334.5,197.5C 319.804,196.833 305.137,196.167 290.5,195.5C 290.649,194.448 290.483,193.448 290,192.5C 287.528,193.601 285.028,194.601 282.5,195.5C 281.551,194.848 280.385,194.514 279,194.5C 247.649,198.022 216.149,201.188 184.5,204C 181.026,204.301 177.692,205.134 174.5,206.5C 173.692,206.192 173.025,205.692 172.5,205C 173.737,204.768 174.737,204.268 175.5,203.5C 187.766,201.853 200.1,200.353 212.5,199C 212.957,198.586 213.291,198.086 213.5,197.5C 215.5,197.167 217.5,196.833 219.5,196.5C 236.173,195.174 252.507,193.507 268.5,191.5 Z"/></g>
<g><path style="opacity:1" fill="#51595d" d="M 195.5,191.5 C 204.5,191.5 213.5,191.5 222.5,191.5C 204.591,193.235 186.591,195.069 168.5,197C 157.788,200.25 146.788,201.75 135.5,201.5C 135.297,199.61 135.963,198.11 137.5,197C 136.451,196.508 135.451,196.674 134.5,197.5C 133.261,197.058 132.261,196.391 131.5,195.5C 132.38,194.469 131.88,193.802 130,193.5C 127.563,194.654 125.063,195.154 122.5,195C 123.942,194.623 124.942,193.79 125.5,192.5C 148.824,191.698 172.157,191.364 195.5,191.5 Z"/></g>
<g><path style="opacity:1" fill="#3c444b" d="M 290.5,195.5 C 290.279,198.097 289.779,198.097 289,195.5C 285.401,196.809 281.901,198.309 278.5,200C 281.871,201.068 285.204,202.235 288.5,203.5C 289.944,202.019 290.611,202.352 290.5,204.5C 290.631,205.239 290.464,205.906 290,206.5C 286.253,204.01 282.087,202.343 277.5,201.5C 276.292,200.766 274.959,200.433 273.5,200.5C 273.082,199.778 272.416,199.278 271.5,199C 271.728,198.601 272.062,198.435 272.5,198.5C 275.699,197.101 279.032,196.101 282.5,195.5C 285.028,194.601 287.528,193.601 290,192.5C 290.483,193.448 290.649,194.448 290.5,195.5 Z"/></g>
<g><path style="opacity:1" fill="#a8b7c1" d="M 290.5,195.5 C 305.137,196.167 319.804,196.833 334.5,197.5C 335.167,196.833 335.833,196.167 336.5,195.5C 338.177,200.942 339.844,206.275 341.5,211.5C 341.806,214.385 341.473,217.052 340.5,219.5C 340.663,217.143 340.497,214.81 340,212.5C 338.519,211.529 337.685,210.196 337.5,208.5C 336.969,206.376 335.635,204.876 333.5,204C 319.152,203.32 304.819,203.486 290.5,204.5C 290.611,202.352 289.944,202.019 288.5,203.5C 285.204,202.235 281.871,201.068 278.5,200C 281.901,198.309 285.401,196.809 289,195.5C 289.779,198.097 290.279,198.097 290.5,195.5 Z"/></g>
<g><path style="opacity:1" fill="#848481" d="M 95.5,173.5 C 95.5,173.167 95.5,172.833 95.5,172.5C 107.5,172.5 119.5,172.5 131.5,172.5C 126.251,172.859 121.251,173.859 116.5,175.5C 114.167,175.5 111.833,175.5 109.5,175.5C 109.665,178.518 109.498,181.518 109,184.5C 108.308,183.975 107.808,183.308 107.5,182.5C 108.002,181.284 108.335,180.117 108.5,179C 105.833,178 105.833,177 108.5,176C 106.567,175.749 104.734,175.249 103,174.5C 103.843,177.543 104.676,180.71 105.5,184C 104.203,187.499 104.203,190.999 105.5,194.5C 105.453,197.568 104.953,200.568 104,203.5C 103.667,201.833 103.333,200.167 103,198.5C 102.667,205.5 102.333,212.5 102,219.5C 101.333,218.167 100.667,218.167 100,219.5C 99.5007,214.511 99.3341,209.511 99.5,204.5C 100.222,204.082 100.722,203.416 101,202.5C 101.475,196.165 101.975,189.831 102.5,183.5C 102.043,180.085 101.377,176.752 100.5,173.5C 98.8333,173.5 97.1667,173.5 95.5,173.5 Z"/></g>
<g><path style="opacity:0.149" fill="#9a9da1" d="M 66.5,194.5 C 66.5,202.833 66.5,211.167 66.5,219.5C 64.1789,211.48 64.1789,203.146 66.5,194.5 Z"/></g>
<g><path style="opacity:1" fill="#676f72" d="M 96.5,199.5 C 96.7359,202.609 96.4025,205.609 95.5,208.5C 94.735,207.34 93.735,206.34 92.5,205.5C 87.2187,206.286 81.8854,206.786 76.5,207C 75.5562,209.719 75.2229,212.552 75.5,215.5C 75.6621,217.527 75.4955,219.527 75,221.5C 74.6667,214.167 74.3333,206.833 74,199.5C 73.8019,201.382 73.3019,203.048 72.5,204.5C 72.838,199.814 73.0047,195.147 73,190.5C 71.6667,191.167 70.3333,191.833 69,192.5C 68.3333,191.5 68.3333,190.5 69,189.5C 77.9803,189.228 87.147,189.561 96.5,190.5C 89.5316,191.497 82.5316,191.83 75.5,191.5C 75.3342,196.179 75.5008,200.845 76,205.5C 76.4955,203.527 76.6621,201.527 76.5,199.5C 81.9789,199.585 87.3122,199.085 92.5,198C 93.2638,200.069 93.7638,202.236 94,204.5C 94.0995,202.347 94.9328,200.681 96.5,199.5 Z"/></g>
<g><path style="opacity:1" fill="#afb7bb" d="M 273.5,200.5 C 274.959,200.433 276.292,200.766 277.5,201.5C 277.294,203.549 276.461,203.883 275,202.5C 267.267,204.038 259.434,205.205 251.5,206C 253.192,207.401 253.859,209.234 253.5,211.5C 253.5,212.167 253.167,212.5 252.5,212.5C 251.751,211.469 251.085,210.302 250.5,209C 246.948,208.15 243.615,208.65 240.5,210.5C 241.376,211.251 242.376,211.751 243.5,212C 241.392,215.294 239.726,214.961 238.5,211C 238.645,210.228 238.978,209.561 239.5,209C 235.795,207.777 232.795,208.61 230.5,211.5C 228.048,206.761 224.881,206.427 221,210.5C 220.727,212.101 220.227,213.601 219.5,215C 220.094,215.464 220.761,215.631 221.5,215.5C 221.082,216.222 220.416,216.722 219.5,217C 220.167,217.333 220.833,217.667 221.5,218C 220.915,219.302 220.249,220.469 219.5,221.5C 219.5,220.5 219.5,219.5 219.5,218.5C 214.959,218.669 214.626,218.002 218.5,216.5C 218.167,216.167 217.833,215.833 217.5,215.5C 215.253,216.374 212.92,216.708 210.5,216.5C 210.657,217.873 210.49,219.207 210,220.5C 208.513,219.747 208.346,218.914 209.5,218C 208.892,217.13 208.059,216.63 207,216.5C 203.667,217.167 200.333,217.833 197,218.5C 194.21,220.652 191.044,221.819 187.5,222C 187.833,222.333 188.167,222.667 188.5,223C 184.167,223.333 179.833,223.667 175.5,224C 176.5,224.333 177.5,224.667 178.5,225C 173.252,226.445 167.918,227.278 162.5,227.5C 161.402,226.603 161.402,225.77 162.5,225C 161.833,224.667 161.167,224.333 160.5,224C 167.048,223.601 172.715,221.267 177.5,217C 183.184,217.449 188.184,215.949 192.5,212.5C 218.823,204.406 245.823,200.406 273.5,200.5 Z"/></g>
<g><path style="opacity:0.998" fill="#adaaa5" d="M 341.5,185.5 C 343.158,194.079 344.158,202.746 344.5,211.5C 343.673,216.651 343.173,221.984 343,227.5C 342.828,220.987 342.328,214.653 341.5,208.5C 341.719,202.852 341.053,197.352 339.5,192C 325.504,191.5 311.504,191.333 297.5,191.5C 307.659,190.67 317.992,190.17 328.5,190C 330.708,189.809 332.708,189.309 334.5,188.5C 335.167,188.5 335.833,188.5 336.5,188.5C 338.649,191.334 339.649,191.001 339.5,187.5C 340.167,186.833 340.833,186.167 341.5,185.5 Z"/></g>
<g><path style="opacity:1" fill="#cbd5d8" d="M 277.5,201.5 C 282.087,202.343 286.253,204.01 290,206.5C 290.464,205.906 290.631,205.239 290.5,204.5C 304.819,203.486 319.152,203.32 333.5,204C 335.635,204.876 336.969,206.376 337.5,208.5C 336.711,208.217 336.044,207.717 335.5,207C 320.76,206.116 306.093,206.782 291.5,209C 290.944,209.383 290.611,209.883 290.5,210.5C 286.616,206.774 281.949,205.607 276.5,207C 274.93,208.397 273.596,209.897 272.5,211.5C 266.345,210.864 260.011,210.864 253.5,211.5C 253.859,209.234 253.192,207.401 251.5,206C 259.434,205.205 267.267,204.038 275,202.5C 276.461,203.883 277.294,203.549 277.5,201.5 Z"/></g>
<g><path style="opacity:0.992" fill="#9fa7b1" d="M 435.5,210.5 C 427.167,211.833 418.833,211.833 410.5,210.5C 418.833,209.167 427.167,209.167 435.5,210.5 Z"/></g>
<g><path style="opacity:1" fill="#c8cdce" d="M 252.5,212.5 C 253.232,214.452 253.232,216.119 252.5,217.5C 251.719,216.271 251.219,214.938 251,213.5C 249.144,215.667 246.977,216.334 244.5,215.5C 243.205,216.098 241.872,216.598 240.5,217C 242.223,217.523 243.556,218.523 244.5,220C 244.387,221.28 243.72,222.113 242.5,222.5C 241.335,221.509 240.168,220.509 239,219.5C 237.112,220.777 235.112,221.777 233,222.5C 232.667,222.167 232.333,221.833 232,221.5C 231.692,222.308 231.192,222.975 230.5,223.5C 229.786,220.973 229.12,218.473 228.5,216C 226.19,215.503 223.857,215.337 221.5,215.5C 220.761,215.631 220.094,215.464 219.5,215C 220.227,213.601 220.727,212.101 221,210.5C 224.881,206.427 228.048,206.761 230.5,211.5C 232.795,208.61 235.795,207.777 239.5,209C 238.978,209.561 238.645,210.228 238.5,211C 239.726,214.961 241.392,215.294 243.5,212C 242.376,211.751 241.376,211.251 240.5,210.5C 243.615,208.65 246.948,208.15 250.5,209C 251.085,210.302 251.751,211.469 252.5,212.5 Z"/></g>
<g><path style="opacity:0.999" fill="#d3e2eb" d="M 410.5,210.5 C 418.833,211.833 427.167,211.833 435.5,210.5C 436.674,211.514 437.34,212.847 437.5,214.5C 414.147,213.181 390.813,212.181 367.5,211.5C 381.912,211.816 396.245,211.482 410.5,210.5 Z"/></g>
<g><path style="opacity:0.984" fill="#9aa5af" d="M 345.5,203.5 C 347.026,204.105 348.026,205.271 348.5,207C 350.628,207.655 352.628,208.489 354.5,209.5C 358.743,210.681 363.076,211.348 367.5,211.5C 390.813,212.181 414.147,213.181 437.5,214.5C 438.488,219.64 438.821,224.974 438.5,230.5C 431.492,230.666 424.492,230.5 417.5,230C 416.748,229.329 416.414,228.496 416.5,227.5C 423.412,228.462 430.412,228.795 437.5,228.5C 437.5,225.5 437.5,222.5 437.5,219.5C 430.5,219.5 423.5,219.5 416.5,219.5C 416.5,221.833 416.5,224.167 416.5,226.5C 416.167,226.5 415.833,226.5 415.5,226.5C 415.664,223.813 415.497,221.146 415,218.5C 413.187,217.391 412.354,218.058 412.5,220.5C 409.5,220.5 406.5,220.5 403.5,220.5C 403.737,221.791 403.404,222.791 402.5,223.5C 402.5,222.5 402.5,221.5 402.5,220.5C 400.409,220.318 398.409,220.652 396.5,221.5C 395.5,220.833 394.5,220.167 393.5,219.5C 392.808,220.025 392.308,220.692 392,221.5C 391,220.167 390,220.167 389,221.5C 388.667,220.833 388.333,220.167 388,219.5C 386.391,220.147 384.891,220.98 383.5,222C 384.451,222.718 384.617,223.551 384,224.5C 383.167,223.5 382.333,222.5 381.5,221.5C 380.059,224.736 380.392,227.736 382.5,230.5C 383.298,228.922 383.798,227.256 384,225.5C 384.483,226.448 384.649,227.448 384.5,228.5C 386.621,228.675 388.621,228.341 390.5,227.5C 390.369,228.376 390.702,229.043 391.5,229.5C 398.319,229.411 405.319,229.411 412.5,229.5C 409.713,230.477 406.713,230.81 403.5,230.5C 403.5,231.5 403.5,232.5 403.5,233.5C 395.791,232.696 387.791,232.53 379.5,233C 378.901,234.622 378.234,236.122 377.5,237.5C 377.334,232.489 377.501,227.489 378,222.5C 378.333,224.833 378.667,227.167 379,229.5C 379.629,225.129 379.463,220.796 378.5,216.5C 389.013,216.442 399.346,216.442 409.5,216.5C 410.386,215.675 410.719,214.675 410.5,213.5C 392.141,213.569 373.807,213.402 355.5,213C 361.865,213.961 368.199,214.795 374.5,215.5C 374.81,218.713 374.477,221.713 373.5,224.5C 373.657,223.127 373.49,221.793 373,220.5C 368.252,221.635 363.419,221.802 358.5,221C 358,220.5 357.5,220 357,219.5C 356.51,220.793 356.343,222.127 356.5,223.5C 356.5,225.167 356.5,226.833 356.5,228.5C 354.799,228.966 353.299,228.966 352,228.5C 351.667,229.167 351.333,229.833 351,230.5C 349.826,225.25 349.159,219.916 349,214.5C 348.667,219.5 348.333,224.5 348,229.5C 346.84,227.203 345.84,227.536 345,230.5C 344.501,225.845 344.334,221.179 344.5,216.5C 345.485,212.366 345.818,208.032 345.5,203.5 Z"/></g>
<g><path style="opacity:1" fill="#798184" d="M 235.5,191.5 C 246.5,191.5 257.5,191.5 268.5,191.5C 252.507,193.507 236.173,195.174 219.5,196.5C 217.5,196.833 215.5,197.167 213.5,197.5C 213.291,198.086 212.957,198.586 212.5,199C 200.1,200.353 187.766,201.853 175.5,203.5C 171.681,203.605 168.014,204.438 164.5,206C 160.059,208.772 155.392,211.106 150.5,213C 152.301,213.317 152.634,213.984 151.5,215C 143.47,216.173 135.47,216.34 127.5,215.5C 126.261,215.942 125.261,216.609 124.5,217.5C 121.547,218.787 119.214,220.787 117.5,223.5C 118.703,218.273 120.037,213.106 121.5,208C 120.517,207.409 119.85,207.743 119.5,209C 118.922,210.811 118.422,212.645 118,214.5C 117.454,211.101 117.787,207.768 119,204.5C 121.118,206.363 123.284,207.03 125.5,206.5C 126.29,207.609 126.79,208.942 127,210.5C 130.164,208.112 133.664,206.945 137.5,207C 135.5,208.667 133.5,210.333 131.5,212C 136.647,212.526 140.98,210.859 144.5,207C 156.819,203.474 169.485,201.474 182.5,201C 180.5,200.667 178.5,200.333 176.5,200C 195.587,197.664 214.587,195.331 233.5,193C 234.416,192.722 235.082,192.222 235.5,191.5 Z"/></g>
<g><path style="opacity:1" fill="#879093" d="M 282.5,195.5 C 279.032,196.101 275.699,197.101 272.5,198.5C 271.726,197.853 270.726,197.52 269.5,197.5C 248.518,199.791 227.518,201.957 206.5,204C 198.404,206.059 190.404,208.392 182.5,211C 178.5,211.333 174.5,211.667 170.5,212C 174.185,212.914 173.852,213.581 169.5,214C 169.833,214.333 170.167,214.667 170.5,215C 167.833,215.333 165.167,215.667 162.5,216C 161.833,217.333 160.833,218.333 159.5,219C 162.167,219.667 162.167,220.333 159.5,221C 156.895,222.444 154.729,222.277 153,220.5C 152.5,220.667 152,220.833 151.5,221C 152.833,222 154.167,223 155.5,224C 153.122,224.974 153.456,225.641 156.5,226C 155.207,226.49 153.873,226.657 152.5,226.5C 152.5,225.167 152.5,223.833 152.5,222.5C 148.391,221.987 145.058,221.987 142.5,222.5C 142.833,223.167 143.167,223.833 143.5,224.5C 141.609,223.464 139.776,223.464 138,224.5C 136.004,224.004 134.337,223.004 133,221.5C 130.822,224.468 129.656,224.135 129.5,220.5C 127.064,220.317 124.897,220.984 123,222.5C 122.878,220.718 123.378,219.052 124.5,217.5C 125.261,216.609 126.261,215.942 127.5,215.5C 135.47,216.34 143.47,216.173 151.5,215C 152.634,213.984 152.301,213.317 150.5,213C 155.392,211.106 160.059,208.772 164.5,206C 168.014,204.438 171.681,203.605 175.5,203.5C 174.737,204.268 173.737,204.768 172.5,205C 173.025,205.692 173.692,206.192 174.5,206.5C 177.692,205.134 181.026,204.301 184.5,204C 216.149,201.188 247.649,198.022 279,194.5C 280.385,194.514 281.551,194.848 282.5,195.5 Z"/></g>
<g><path style="opacity:1" fill="#e7ecec" d="M 337.5,208.5 C 337.685,210.196 338.519,211.529 340,212.5C 340.497,214.81 340.663,217.143 340.5,219.5C 340.898,225.339 341.565,231.006 342.5,236.5C 342.825,244.352 342.492,252.018 341.5,259.5C 341.843,256.347 341.51,254.013 340.5,252.5C 338.387,255.216 336.387,258.05 334.5,261C 314.641,261.611 294.975,261.611 275.5,261C 277.962,259.784 280.629,259.118 283.5,259C 281.567,258.749 279.734,258.249 278,257.5C 276.893,258.712 276.393,258.379 276.5,256.5C 278.546,254.721 280.713,253.054 283,251.5C 285.683,254.016 288.183,256.683 290.5,259.5C 291.386,258.675 291.719,257.675 291.5,256.5C 301.508,257.08 311.508,257.747 321.5,258.5C 326.177,257.943 330.844,257.277 335.5,256.5C 337.876,252.513 339.043,248.18 339,243.5C 339.667,237.167 339.667,230.833 339,224.5C 338.625,222 337.792,219.667 336.5,217.5C 335.311,216.571 333.978,216.238 332.5,216.5C 332.5,215.5 332.5,214.5 332.5,213.5C 320.169,214.583 307.836,215.749 295.5,217C 293.967,218.808 292.3,219.308 290.5,218.5C 291.833,215.833 291.833,213.167 290.5,210.5C 290.611,209.883 290.944,209.383 291.5,209C 306.093,206.782 320.76,206.116 335.5,207C 336.044,207.717 336.711,208.217 337.5,208.5 Z"/></g>
<g><path style="opacity:1" fill="#d8e6ee" d="M 378.5,216.5 C 377.25,216.423 376.417,215.756 376,214.5C 375.617,215.056 375.117,215.389 374.5,215.5C 368.199,214.795 361.865,213.961 355.5,213C 373.807,213.402 392.141,213.569 410.5,213.5C 410.719,214.675 410.386,215.675 409.5,216.5C 399.346,216.442 389.013,216.442 378.5,216.5 Z"/></g>
<g><path style="opacity:1" fill="#9fa7a9" d="M 272.5,198.5 C 272.062,198.435 271.728,198.601 271.5,199C 272.416,199.278 273.082,199.778 273.5,200.5C 245.823,200.406 218.823,204.406 192.5,212.5C 188.184,215.949 183.184,217.449 177.5,217C 172.715,221.267 167.048,223.601 160.5,224C 161.167,224.333 161.833,224.667 162.5,225C 161.402,225.77 161.402,226.603 162.5,227.5C 161.851,228.606 161.517,229.606 161.5,230.5C 160.482,229.807 159.482,229.141 158.5,228.5C 158.565,228.062 158.399,227.728 158,227.5C 157.5,229.333 156.333,230.5 154.5,231C 156.932,232.087 156.598,232.587 153.5,232.5C 153.966,230.799 153.966,229.299 153.5,228C 149.478,226.795 145.811,224.962 142.5,222.5C 145.058,221.987 148.391,221.987 152.5,222.5C 152.5,223.833 152.5,225.167 152.5,226.5C 153.873,226.657 155.207,226.49 156.5,226C 153.456,225.641 153.122,224.974 155.5,224C 154.167,223 152.833,222 151.5,221C 152,220.833 152.5,220.667 153,220.5C 154.729,222.277 156.895,222.444 159.5,221C 162.167,220.333 162.167,219.667 159.5,219C 160.833,218.333 161.833,217.333 162.5,216C 165.167,215.667 167.833,215.333 170.5,215C 170.167,214.667 169.833,214.333 169.5,214C 173.852,213.581 174.185,212.914 170.5,212C 174.5,211.667 178.5,211.333 182.5,211C 190.404,208.392 198.404,206.059 206.5,204C 227.518,201.957 248.518,199.791 269.5,197.5C 270.726,197.52 271.726,197.853 272.5,198.5 Z"/></g>
<g><path style="opacity:1" fill="#9ba09f" d="M 95.5,208.5 C 95.5432,212.893 95.0432,213.226 94,209.5C 93.51,210.793 93.3433,212.127 93.5,213.5C 93.5,217.5 93.5,221.5 93.5,225.5C 88.807,223.64 83.807,222.974 78.5,223.5C 78.8674,219.033 78.3674,214.7 77,210.5C 76.8019,212.382 76.3019,214.048 75.5,215.5C 75.2229,212.552 75.5562,209.719 76.5,207C 81.8854,206.786 87.2187,206.286 92.5,205.5C 93.735,206.34 94.735,207.34 95.5,208.5 Z"/></g>
<g><path style="opacity:1" fill="#fbfbf9" d="M 291.5,256.5 C 291.719,255.325 291.386,254.325 290.5,253.5C 287.369,254.119 285.036,252.785 283.5,249.5C 286.282,248.048 288.782,248.381 291,250.5C 291.667,248.5 291.667,246.5 291,244.5C 290.5,245 290,245.5 289.5,246C 283.873,247.033 278.54,246.533 273.5,244.5C 272.612,246.033 272.112,248.366 272,251.5C 271.667,250.833 271.333,250.167 271,249.5C 268.382,250.738 265.715,250.738 263,249.5C 260.367,250.656 257.7,251.656 255,252.5C 254.682,250.939 253.849,249.772 252.5,249C 254.487,246.53 254.987,243.697 254,240.5C 253.586,240.043 253.086,239.709 252.5,239.5C 251.534,241.396 251.201,243.396 251.5,245.5C 249.167,244.167 246.833,244.167 244.5,245.5C 244.741,242.001 243.908,241.668 242,244.5C 241.5,244 241,243.5 240.5,243C 241.623,241.956 242.956,241.29 244.5,241C 242.833,239.833 241.167,238.667 239.5,237.5C 238.749,238.376 238.249,239.376 238,240.5C 237.784,238.616 237.117,236.949 236,235.5C 235.383,236.449 235.549,237.282 236.5,238C 234.17,239.345 231.837,239.512 229.5,238.5C 230.325,237.614 231.325,237.281 232.5,237.5C 232.879,231.567 235.046,230.901 239,235.5C 240.722,235.038 242.555,234.872 244.5,235C 242.431,233.477 240.097,232.643 237.5,232.5C 237.5,231.5 237.5,230.5 237.5,229.5C 239.477,228.851 241.31,228.851 243,229.5C 247.848,226.098 253.182,223.431 259,221.5C 260,221.833 261,222.167 262,222.5C 265.353,220.462 268.853,219.795 272.5,220.5C 271.833,221.5 271.167,222.5 270.5,223.5C 272.031,227.448 273.031,231.448 273.5,235.5C 274.353,238.518 276.353,240.351 279.5,241C 289.909,241.081 293.742,235.914 291,225.5C 290.617,226.056 290.117,226.389 289.5,226.5C 285.116,226.826 280.783,226.492 276.5,225.5C 277.947,224.065 279.614,223.065 281.5,222.5C 285.165,222.498 288.165,221.165 290.5,218.5C 292.3,219.308 293.967,218.808 295.5,217C 307.836,215.749 320.169,214.583 332.5,213.5C 332.5,214.5 332.5,215.5 332.5,216.5C 333.978,216.238 335.311,216.571 336.5,217.5C 337.792,219.667 338.625,222 339,224.5C 339.667,230.833 339.667,237.167 339,243.5C 339.043,248.18 337.876,252.513 335.5,256.5C 330.844,257.277 326.177,257.943 321.5,258.5C 311.508,257.747 301.508,257.08 291.5,256.5 Z"/></g>
<g><path style="opacity:1" fill="#676662" d="M 290.5,210.5 C 291.833,213.167 291.833,215.833 290.5,218.5C 288.165,221.165 285.165,222.498 281.5,222.5C 275.174,221.511 272.174,217.844 272.5,211.5C 273.596,209.897 274.93,208.397 276.5,207C 281.949,205.607 286.616,206.774 290.5,210.5 Z"/></g>
<g><path style="opacity:1" fill="#e8eeed" d="M 277.5,209.5 C 280.518,209.335 283.518,209.502 286.5,210C 291.174,215.719 289.674,218.886 282,219.5C 274.144,218.554 272.644,215.221 277.5,209.5 Z"/></g>
<g><path style="opacity:0.075" fill="#efefea" d="M 60.5,221.5 C 62.8519,222.543 63.0185,223.876 61,225.5C 60.51,224.207 60.3433,222.873 60.5,221.5 Z"/></g>
<g><path style="opacity:0.999" fill="#e7e8e6" d="M 416.5,227.5 C 416.5,227.167 416.5,226.833 416.5,226.5C 416.5,224.167 416.5,221.833 416.5,219.5C 423.5,219.5 430.5,219.5 437.5,219.5C 437.5,222.5 437.5,225.5 437.5,228.5C 430.412,228.795 423.412,228.462 416.5,227.5 Z"/></g>
<g><path style="opacity:1" fill="#dddddb" d="M 402.5,223.5 C 402.5,224.833 402.5,226.167 402.5,227.5C 400.323,227.414 398.323,226.747 396.5,225.5C 395.146,227.184 393.479,227.684 391.5,227C 392.993,225.844 392.826,225.01 391,224.5C 389.317,225.176 389.15,226.176 390.5,227.5C 388.621,228.341 386.621,228.675 384.5,228.5C 384.649,227.448 384.483,226.448 384,225.5C 383.798,227.256 383.298,228.922 382.5,230.5C 380.392,227.736 380.059,224.736 381.5,221.5C 382.333,222.5 383.167,223.5 384,224.5C 384.617,223.551 384.451,222.718 383.5,222C 384.891,220.98 386.391,220.147 388,219.5C 388.333,220.167 388.667,220.833 389,221.5C 390,220.167 391,220.167 392,221.5C 392.308,220.692 392.808,220.025 393.5,219.5C 394.5,220.167 395.5,220.833 396.5,221.5C 398.409,220.652 400.409,220.318 402.5,220.5C 402.5,221.5 402.5,222.5 402.5,223.5 Z"/></g>
<g><path style="opacity:1" fill="#f8f9f8" d="M 356.5,246.5 C 356.5,245.833 356.5,245.167 356.5,244.5C 356.5,239.167 356.5,233.833 356.5,228.5C 356.5,226.833 356.5,225.167 356.5,223.5C 361.74,222.551 367.073,222.218 372.5,222.5C 372.5,229.833 372.5,237.167 372.5,244.5C 367.821,244.334 363.155,244.501 358.5,245C 357.956,245.717 357.289,246.217 356.5,246.5 Z"/></g>
<g><path style="opacity:1" fill="#cbccca" d="M 75.5,215.5 C 76.3019,214.048 76.8019,212.382 77,210.5C 78.3674,214.7 78.8674,219.033 78.5,223.5C 83.807,222.974 88.807,223.64 93.5,225.5C 93.5,227.167 93.5,228.833 93.5,230.5C 88.456,230.827 83.456,230.494 78.5,229.5C 77.1751,222.852 75.8418,222.852 74.5,229.5C 73.8333,227.833 73.1667,226.167 72.5,224.5C 70.9974,225.052 69.3307,225.052 67.5,224.5C 67.7845,226.415 67.4511,228.081 66.5,229.5C 66.5,226.167 66.5,222.833 66.5,219.5C 67.3238,215.688 67.8238,211.688 68,207.5C 68.6667,211.5 69.3333,211.5 70,207.5C 70.3333,210.833 70.6667,214.167 71,217.5C 71.3333,217.167 71.6667,216.833 72,216.5C 72.4988,212.514 72.6655,208.514 72.5,204.5C 73.3019,203.048 73.8019,201.382 74,199.5C 74.3333,206.833 74.6667,214.167 75,221.5C 75.4955,219.527 75.6621,217.527 75.5,215.5 Z"/></g>
<g><path style="opacity:1" fill="#e4e6e3" d="M 272.5,211.5 C 272.174,217.844 275.174,221.511 281.5,222.5C 279.614,223.065 277.947,224.065 276.5,225.5C 280.783,226.492 285.116,226.826 289.5,226.5C 287.19,227.164 284.69,227.497 282,227.5C 279.05,227.432 276.383,226.766 274,225.5C 273.502,228.817 273.335,232.15 273.5,235.5C 273.031,231.448 272.031,227.448 270.5,223.5C 271.167,222.5 271.833,221.5 272.5,220.5C 268.853,219.795 265.353,220.462 262,222.5C 261,222.167 260,221.833 259,221.5C 253.182,223.431 247.848,226.098 243,229.5C 241.31,228.851 239.477,228.851 237.5,229.5C 237.5,230.5 237.5,231.5 237.5,232.5C 240.097,232.643 242.431,233.477 244.5,235C 242.555,234.872 240.722,235.038 239,235.5C 235.046,230.901 232.879,231.567 232.5,237.5C 231.325,237.281 230.325,237.614 229.5,238.5C 231.837,239.512 234.17,239.345 236.5,238C 235.549,237.282 235.383,236.449 236,235.5C 237.117,236.949 237.784,238.616 238,240.5C 238.249,239.376 238.749,238.376 239.5,237.5C 241.167,238.667 242.833,239.833 244.5,241C 242.956,241.29 241.623,241.956 240.5,243C 241,243.5 241.5,244 242,244.5C 243.908,241.668 244.741,242.001 244.5,245.5C 246.833,244.167 249.167,244.167 251.5,245.5C 251.201,243.396 251.534,241.396 252.5,239.5C 253.086,239.709 253.586,240.043 254,240.5C 254.987,243.697 254.487,246.53 252.5,249C 253.849,249.772 254.682,250.939 255,252.5C 257.7,251.656 260.367,250.656 263,249.5C 265.715,250.738 268.382,250.738 271,249.5C 271.333,250.167 271.667,250.833 272,251.5C 272.112,248.366 272.612,246.033 273.5,244.5C 273.338,246.527 273.505,248.527 274,250.5C 276.064,249.409 278.231,249.242 280.5,250C 278.759,251.62 276.925,253.12 275,254.5C 274.692,253.692 274.192,253.025 273.5,252.5C 272.52,255.086 272.187,257.753 272.5,260.5C 266.562,260.377 260.728,259.711 255,258.5C 254.667,258.833 254.333,259.167 254,259.5C 253.667,256.5 253.333,253.5 253,250.5C 252.975,252.898 252.141,255.231 250.5,257.5C 247.566,256.58 244.566,255.913 241.5,255.5C 237.801,256.652 234.134,256.652 230.5,255.5C 229.522,255.977 228.689,256.643 228,257.5C 225.649,256.286 223.149,255.452 220.5,255C 220.616,253.732 220.949,252.398 221.5,251C 220.269,249.033 219.269,249.199 218.5,251.5C 214.083,252.87 209.75,252.703 205.5,251C 207.112,250.28 208.612,250.446 210,251.5C 210.14,249.479 210.307,247.645 210.5,246C 207.833,245.333 207.833,244.667 210.5,244C 210.273,242.865 209.94,241.698 209.5,240.5C 208.41,241.727 207.076,242.56 205.5,243C 197.833,243.667 190.167,243.667 182.5,243C 181.833,242.667 181.167,242.333 180.5,242C 182.167,241.667 183.833,241.333 185.5,241C 184.552,240.517 183.552,240.351 182.5,240.5C 182.918,239.778 183.584,239.278 184.5,239C 182.137,238.411 181.137,236.911 181.5,234.5C 180.448,234.649 179.448,234.483 178.5,234C 181.167,233.667 183.833,233.333 186.5,233C 185.167,232.333 183.833,231.667 182.5,231C 189.571,228.752 196.904,227.419 204.5,227C 202.5,226.667 200.5,226.333 198.5,226C 206.167,225 213.833,224 221.5,223C 220.584,222.722 219.918,222.222 219.5,221.5C 220.249,220.469 220.915,219.302 221.5,218C 220.833,217.667 220.167,217.333 219.5,217C 220.416,216.722 221.082,216.222 221.5,215.5C 223.857,215.337 226.19,215.503 228.5,216C 229.12,218.473 229.786,220.973 230.5,223.5C 231.192,222.975 231.692,222.308 232,221.5C 232.333,221.833 232.667,222.167 233,222.5C 235.112,221.777 237.112,220.777 239,219.5C 240.168,220.509 241.335,221.509 242.5,222.5C 243.72,222.113 244.387,221.28 244.5,220C 243.556,218.523 242.223,217.523 240.5,217C 241.872,216.598 243.205,216.098 244.5,215.5C 246.977,216.334 249.144,215.667 251,213.5C 251.219,214.938 251.719,216.271 252.5,217.5C 253.232,216.119 253.232,214.452 252.5,212.5C 253.167,212.5 253.5,212.167 253.5,211.5C 260.011,210.864 266.345,210.864 272.5,211.5 Z"/></g>
<g><path style="opacity:1" fill="#c2c3c4" d="M 412.5,220.5 C 412.5,223.5 412.5,226.5 412.5,229.5C 405.319,229.411 398.319,229.411 391.5,229.5C 390.702,229.043 390.369,228.376 390.5,227.5C 389.15,226.176 389.317,225.176 391,224.5C 392.826,225.01 392.993,225.844 391.5,227C 393.479,227.684 395.146,227.184 396.5,225.5C 398.323,226.747 400.323,227.414 402.5,227.5C 402.5,226.167 402.5,224.833 402.5,223.5C 403.404,222.791 403.737,221.791 403.5,220.5C 406.5,220.5 409.5,220.5 412.5,220.5 Z"/></g>
<g><path style="opacity:1" fill="#efeee9" d="M 104.5,257.5 C 104.666,261.846 104.499,266.179 104,270.5C 103.814,267.964 103.314,265.631 102.5,263.5C 102.5,262.5 102.5,261.5 102.5,260.5C 102.673,250.982 102.34,241.482 101.5,232C 102.332,225.837 103.166,219.67 104,213.5C 104.088,219.61 104.755,225.61 106,231.5C 106.364,219.609 107.364,219.609 109,231.5C 111.239,228.559 112.572,225.226 113,221.5C 113.507,225.802 112.673,229.802 110.5,233.5C 112.027,235.193 113.36,237.027 114.5,239C 113.857,243.784 113.191,248.617 112.5,253.5C 111.28,253.113 110.613,252.28 110.5,251C 110.994,249.538 111.327,248.038 111.5,246.5C 110.241,242.951 109.407,239.284 109,235.5C 108.505,237.473 108.338,239.473 108.5,241.5C 106.876,241.64 105.71,240.973 105,239.5C 104.501,245.491 104.334,251.491 104.5,257.5 Z"/></g>
<g><path style="opacity:1" fill="#ebeae4" d="M 93.5,213.5 C 94.2216,213.918 94.7216,214.584 95,215.5C 95.3333,220.167 95.6667,224.833 96,229.5C 96.6839,227.641 97.6839,225.974 99,224.5C 99.4994,229.823 99.666,235.156 99.5,240.5C 98.7889,249.141 98.2889,257.808 98,266.5C 97.6667,258.167 97.3333,249.833 97,241.5C 96.8288,249.011 96.3288,256.345 95.5,263.5C 95.5,262.167 95.5,260.833 95.5,259.5C 93.9404,253.7 93.2737,247.7 93.5,241.5C 93.5,239.167 93.5,236.833 93.5,234.5C 88.8215,234.334 84.1548,234.501 79.5,235C 78.2394,237.662 76.9061,240.162 75.5,242.5C 75.5,242.167 75.5,241.833 75.5,241.5C 75.6602,239.801 75.4935,238.134 75,236.5C 73.8063,238.623 73.1397,240.957 73,243.5C 70.8515,239.386 69.5182,239.719 69,244.5C 68.4338,242.277 67.6005,240.277 66.5,238.5C 67.7335,235.465 67.7335,232.465 66.5,229.5C 67.4511,228.081 67.7845,226.415 67.5,224.5C 69.3307,225.052 70.9974,225.052 72.5,224.5C 73.1667,226.167 73.8333,227.833 74.5,229.5C 75.8418,222.852 77.1751,222.852 78.5,229.5C 83.456,230.494 88.456,230.827 93.5,230.5C 93.5,228.833 93.5,227.167 93.5,225.5C 93.5,221.5 93.5,217.5 93.5,213.5 Z"/></g>
<g><path style="opacity:1" fill="#ced0ce" d="M 219.5,221.5 C 219.918,222.222 220.584,222.722 221.5,223C 213.833,224 206.167,225 198.5,226C 200.5,226.333 202.5,226.667 204.5,227C 196.904,227.419 189.571,228.752 182.5,231C 183.833,231.667 185.167,232.333 186.5,233C 183.833,233.333 181.167,233.667 178.5,234C 179.448,234.483 180.448,234.649 181.5,234.5C 181.137,236.911 182.137,238.411 184.5,239C 183.584,239.278 182.918,239.778 182.5,240.5C 174.466,239.662 166.466,238.495 158.5,237C 159.678,236.033 161.011,235.533 162.5,235.5C 161.41,233.997 160.243,233.664 159,234.5C 158.505,232.527 158.338,230.527 158.5,228.5C 159.482,229.141 160.482,229.807 161.5,230.5C 161.517,229.606 161.851,228.606 162.5,227.5C 167.918,227.278 173.252,226.445 178.5,225C 177.5,224.667 176.5,224.333 175.5,224C 179.833,223.667 184.167,223.333 188.5,223C 188.167,222.667 187.833,222.333 187.5,222C 191.044,221.819 194.21,220.652 197,218.5C 200.333,217.833 203.667,217.167 207,216.5C 208.059,216.63 208.892,217.13 209.5,218C 208.346,218.914 208.513,219.747 210,220.5C 210.49,219.207 210.657,217.873 210.5,216.5C 212.92,216.708 215.253,216.374 217.5,215.5C 217.833,215.833 218.167,216.167 218.5,216.5C 214.626,218.002 214.959,218.669 219.5,218.5C 219.5,219.5 219.5,220.5 219.5,221.5 Z"/></g>
<g><path style="opacity:1" fill="#807e78" d="M 289.5,226.5 C 290.117,226.389 290.617,226.056 291,225.5C 293.742,235.914 289.909,241.081 279.5,241C 276.353,240.351 274.353,238.518 273.5,235.5C 273.335,232.15 273.502,228.817 274,225.5C 276.383,226.766 279.05,227.432 282,227.5C 284.69,227.497 287.19,227.164 289.5,226.5 Z"/></g>
<g><path style="opacity:1" fill="#f7f8f7" d="M 274.5,230.5 C 279.5,230.5 284.5,230.5 289.5,230.5C 289.91,236.091 287.243,238.758 281.5,238.5C 276.394,238.299 274.061,235.632 274.5,230.5 Z"/></g>
<g><path style="opacity:1" fill="#a9a19a" d="M 378.5,216.5 C 379.463,220.796 379.629,225.129 379,229.5C 378.667,227.167 378.333,224.833 378,222.5C 377.501,227.489 377.334,232.489 377.5,237.5C 377.5,241.167 377.5,244.833 377.5,248.5C 376.766,249.708 376.433,251.041 376.5,252.5C 375.833,252.5 375.167,252.5 374.5,252.5C 374.795,250.265 374.461,248.265 373.5,246.5C 374.669,239.158 374.669,231.825 373.5,224.5C 374.477,221.713 374.81,218.713 374.5,215.5C 375.117,215.389 375.617,215.056 376,214.5C 376.417,215.756 377.25,216.423 378.5,216.5 Z"/></g>
<g><path style="opacity:1" fill="#cfd0ca" d="M 93.5,241.5 C 88.9164,242.277 84.2497,242.777 79.5,243C 79.175,247.538 78.175,251.705 76.5,255.5C 75.5151,251.366 75.1818,247.032 75.5,242.5C 76.9061,240.162 78.2394,237.662 79.5,235C 84.1548,234.501 88.8215,234.334 93.5,234.5C 93.5,236.833 93.5,239.167 93.5,241.5 Z"/></g>
<g><path style="opacity:1" fill="#cfd0cd" d="M 341.5,208.5 C 342.328,214.653 342.828,220.987 343,227.5C 343.173,221.984 343.673,216.651 344.5,211.5C 344.5,213.167 344.5,214.833 344.5,216.5C 344.334,221.179 344.501,225.845 345,230.5C 345.84,227.536 346.84,227.203 348,229.5C 348.333,224.5 348.667,219.5 349,214.5C 349.159,219.916 349.826,225.25 351,230.5C 351.333,229.833 351.667,229.167 352,228.5C 353.299,228.966 354.799,228.966 356.5,228.5C 356.5,233.833 356.5,239.167 356.5,244.5C 355.732,243.737 355.232,242.737 355,241.5C 354.012,244.424 353.346,247.424 353,250.5C 352.654,247.424 351.988,244.424 351,241.5C 350.501,245.821 350.334,250.154 350.5,254.5C 353.482,254.963 356.482,255.296 359.5,255.5C 356.413,256.053 353.913,257.72 352,260.5C 351.194,263.446 349.861,266.112 348,268.5C 347.819,271.695 347.319,274.695 346.5,277.5C 347.334,263.835 347.834,250.168 348,236.5C 345.993,241.37 344.993,240.704 345,234.5C 344.5,242.493 344.334,250.493 344.5,258.5C 343.833,251.167 343.167,243.833 342.5,236.5C 341.565,231.006 340.898,225.339 340.5,219.5C 341.473,217.052 341.806,214.385 341.5,211.5C 341.5,210.5 341.5,209.5 341.5,208.5 Z"/></g>
<g><path style="opacity:0.459" fill="#e8e3da" d="M 60.5,239.5 C 62.9755,241.121 63.1422,243.121 61,245.5C 60.5045,243.527 60.3379,241.527 60.5,239.5 Z"/></g>
<g><path style="opacity:1" fill="#a0a4a5" d="M 93.5,241.5 C 93.2737,247.7 93.9404,253.7 95.5,259.5C 94.2866,260.575 92.7866,261.241 91,261.5C 86.9165,260.305 82.7498,259.639 78.5,259.5C 78.6882,261.103 78.1882,262.437 77,263.5C 76.5026,260.854 76.3359,258.187 76.5,255.5C 78.175,251.705 79.175,247.538 79.5,243C 84.2497,242.777 88.9164,242.277 93.5,241.5 Z"/></g>
<g><path style="opacity:1" fill="#bfc4c4" d="M 142.5,222.5 C 145.811,224.962 149.478,226.795 153.5,228C 153.966,229.299 153.966,230.799 153.5,232.5C 156.598,232.587 156.932,232.087 154.5,231C 156.333,230.5 157.5,229.333 158,227.5C 158.399,227.728 158.565,228.062 158.5,228.5C 158.338,230.527 158.505,232.527 159,234.5C 160.243,233.664 161.41,233.997 162.5,235.5C 161.011,235.533 159.678,236.033 158.5,237C 166.466,238.495 174.466,239.662 182.5,240.5C 183.552,240.351 184.552,240.517 185.5,241C 183.833,241.333 182.167,241.667 180.5,242C 181.167,242.333 181.833,242.667 182.5,243C 190.167,243.667 197.833,243.667 205.5,243C 207.076,242.56 208.41,241.727 209.5,240.5C 209.94,241.698 210.273,242.865 210.5,244C 207.833,244.667 207.833,245.333 210.5,246C 210.307,247.645 210.14,249.479 210,251.5C 208.612,250.446 207.112,250.28 205.5,251C 209.75,252.703 214.083,252.87 218.5,251.5C 219.269,249.199 220.269,249.033 221.5,251C 220.949,252.398 220.616,253.732 220.5,255C 223.149,255.452 225.649,256.286 228,257.5C 228.689,256.643 229.522,255.977 230.5,255.5C 234.134,256.652 237.801,256.652 241.5,255.5C 244.566,255.913 247.566,256.58 250.5,257.5C 252.141,255.231 252.975,252.898 253,250.5C 253.333,253.5 253.667,256.5 254,259.5C 254.333,259.167 254.667,258.833 255,258.5C 260.728,259.711 266.562,260.377 272.5,260.5C 272.5,261.5 272.5,262.5 272.5,263.5C 259.153,264.227 245.819,263.393 232.5,261C 220.518,260.034 208.518,259.534 196.5,259.5C 189.884,258.18 183.217,256.347 176.5,254C 181.508,253.131 181.175,252.464 175.5,252C 173.699,251.683 173.366,251.016 174.5,250C 171.833,249.667 169.167,249.333 166.5,249C 166.833,248.667 167.167,248.333 167.5,248C 166.167,247.667 164.833,247.333 163.5,247C 164.706,244.291 163.706,242.625 160.5,242C 161.167,241.667 161.833,241.333 162.5,241C 160.866,240.506 159.199,240.34 157.5,240.5C 157.773,238.549 157.107,237.049 155.5,236C 156.993,234.844 156.826,234.01 155,233.5C 152.527,235.225 152.027,237.392 153.5,240C 152.833,240.667 152.167,241.333 151.5,242C 148.891,241.232 146.391,240.732 144,240.5C 143.333,239.833 143.333,239.167 144,238.5C 145.666,239.34 145.833,238.84 144.5,237C 147.167,236 147.167,235 144.5,234C 145.167,233.667 145.833,233.333 146.5,233C 143.798,231.187 143.464,229.354 145.5,227.5C 145.058,226.261 144.391,225.261 143.5,224.5C 143.167,223.833 142.833,223.167 142.5,222.5 Z"/></g>
<g><path style="opacity:1" fill="#bbc6cc" d="M 373.5,224.5 C 374.669,231.825 374.669,239.158 373.5,246.5C 368.55,248.215 363.216,249.215 357.5,249.5C 356.614,248.675 356.281,247.675 356.5,246.5C 357.289,246.217 357.956,245.717 358.5,245C 363.155,244.501 367.821,244.334 372.5,244.5C 372.5,237.167 372.5,229.833 372.5,222.5C 367.073,222.218 361.74,222.551 356.5,223.5C 356.343,222.127 356.51,220.793 357,219.5C 357.5,220 358,220.5 358.5,221C 363.419,221.802 368.252,221.635 373,220.5C 373.49,221.793 373.657,223.127 373.5,224.5 Z"/></g>
<g><path style="opacity:1" fill="#464d53" d="M 415.5,226.5 C 415.334,231.179 415.501,235.845 416,240.5C 416.497,238.19 416.663,235.857 416.5,233.5C 420.514,233.334 424.514,233.501 428.5,234C 433.972,239.544 433.305,244.544 426.5,249C 422.855,249.719 419.188,250.219 415.5,250.5C 415.662,248.473 415.495,246.473 415,244.5C 414.751,245.624 414.251,246.624 413.5,247.5C 412.679,244.553 412.179,241.553 412,238.5C 411.741,241.587 411.241,244.587 410.5,247.5C 410.5,248.167 410.5,248.833 410.5,249.5C 399.511,248.881 388.511,248.548 377.5,248.5C 377.5,244.833 377.5,241.167 377.5,237.5C 378.234,236.122 378.901,234.622 379.5,233C 387.791,232.53 395.791,232.696 403.5,233.5C 403.5,232.5 403.5,231.5 403.5,230.5C 406.713,230.81 409.713,230.477 412.5,229.5C 412.5,226.5 412.5,223.5 412.5,220.5C 412.354,218.058 413.187,217.391 415,218.5C 415.497,221.146 415.664,223.813 415.5,226.5 Z"/></g>
<g><path style="opacity:1" fill="#c5cacb" d="M 75.5,241.5 C 74.6706,249.657 74.1706,257.99 74,266.5C 72.9552,259.875 72.2886,253.208 72,246.5C 71.6667,245.833 71.3333,245.167 71,244.5C 70.51,245.793 70.3433,247.127 70.5,248.5C 69.6981,249.952 69.1981,251.618 69,253.5C 68.6667,250.833 68.3333,248.167 68,245.5C 67.5831,244.244 66.7498,243.577 65.5,243.5C 66.3007,241.958 66.634,240.292 66.5,238.5C 67.6005,240.277 68.4338,242.277 69,244.5C 69.5182,239.719 70.8515,239.386 73,243.5C 73.1397,240.957 73.8063,238.623 75,236.5C 75.4935,238.134 75.6602,239.801 75.5,241.5 Z"/></g>
<g><path style="opacity:1" fill="#8d9394" d="M 122.5,238.5 C 124.058,242.958 126.724,243.958 130.5,241.5C 131.298,243.078 131.798,244.744 132,246.5C 132.483,245.552 132.649,244.552 132.5,243.5C 135.374,243.377 137.874,242.377 140,240.5C 140.833,241.5 141.667,242.5 142.5,243.5C 143.086,243.291 143.586,242.957 144,242.5C 146.74,243.282 149.574,243.782 152.5,244C 153.973,244.71 154.64,245.876 154.5,247.5C 156.527,247.662 158.527,247.495 160.5,247C 159.304,246.346 159.304,245.846 160.5,245.5C 161.072,247.078 161.406,248.578 161.5,250C 158.833,250.333 156.167,250.667 153.5,251C 156.365,251.183 159.031,251.683 161.5,252.5C 159.031,253.317 156.365,253.817 153.5,254C 155.81,254.497 158.143,254.663 160.5,254.5C 160.5,255.833 160.5,257.167 160.5,258.5C 162.898,258.259 164.898,258.926 166.5,260.5C 164.473,260.338 162.473,260.505 160.5,261C 161.833,261.333 163.167,261.667 164.5,262C 158.972,262.712 153.472,262.546 148,261.5C 147.167,261.667 146.333,261.833 145.5,262C 145.833,262.333 146.167,262.667 146.5,263C 139.785,263.243 133.119,263.743 126.5,264.5C 126.5,263.167 126.5,261.833 126.5,260.5C 124.61,260.297 123.11,260.963 122,262.5C 119.297,257.759 117.131,252.759 115.5,247.5C 115.719,246.062 116.219,244.729 117,243.5C 118.907,247.01 121.74,248.176 125.5,247C 121.475,244.166 119.975,240.666 121,236.5C 121.278,237.416 121.778,238.082 122.5,238.5 Z"/></g>
<g><path style="opacity:1" fill="#a7a9a8" d="M 124.5,217.5 C 123.378,219.052 122.878,220.718 123,222.5C 124.897,220.984 127.064,220.317 129.5,220.5C 129.656,224.135 130.822,224.468 133,221.5C 134.337,223.004 136.004,224.004 138,224.5C 139.776,223.464 141.609,223.464 143.5,224.5C 144.391,225.261 145.058,226.261 145.5,227.5C 143.464,229.354 143.798,231.187 146.5,233C 145.833,233.333 145.167,233.667 144.5,234C 147.167,235 147.167,236 144.5,237C 145.833,238.84 145.666,239.34 144,238.5C 143.333,239.167 143.333,239.833 144,240.5C 146.391,240.732 148.891,241.232 151.5,242C 152.167,241.333 152.833,240.667 153.5,240C 152.027,237.392 152.527,235.225 155,233.5C 156.826,234.01 156.993,234.844 155.5,236C 157.107,237.049 157.773,238.549 157.5,240.5C 159.199,240.34 160.866,240.506 162.5,241C 161.833,241.333 161.167,241.667 160.5,242C 163.706,242.625 164.706,244.291 163.5,247C 164.833,247.333 166.167,247.667 167.5,248C 167.167,248.333 166.833,248.667 166.5,249C 169.167,249.333 171.833,249.667 174.5,250C 173.366,251.016 173.699,251.683 175.5,252C 181.175,252.464 181.508,253.131 176.5,254C 183.217,256.347 189.884,258.18 196.5,259.5C 194.833,259.5 193.167,259.5 191.5,259.5C 182.399,260.649 174.066,258.815 166.5,254C 166.833,253.667 167.167,253.333 167.5,253C 165.527,252.505 163.527,252.338 161.5,252.5C 159.031,251.683 156.365,251.183 153.5,251C 156.167,250.667 158.833,250.333 161.5,250C 161.406,248.578 161.072,247.078 160.5,245.5C 159.304,245.846 159.304,246.346 160.5,247C 158.527,247.495 156.527,247.662 154.5,247.5C 154.64,245.876 153.973,244.71 152.5,244C 149.574,243.782 146.74,243.282 144,242.5C 143.586,242.957 143.086,243.291 142.5,243.5C 141.667,242.5 140.833,241.5 140,240.5C 137.874,242.377 135.374,243.377 132.5,243.5C 132.649,244.552 132.483,245.552 132,246.5C 131.798,244.744 131.298,243.078 130.5,241.5C 126.724,243.958 124.058,242.958 122.5,238.5C 122.555,236.743 122.888,235.076 123.5,233.5C 124.95,234.655 125.95,236.155 126.5,238C 128.638,237.919 128.971,236.919 127.5,235C 128.667,234.5 129.5,233.667 130,232.5C 130.667,230.167 130.667,227.833 130,225.5C 128.513,226.253 128.346,227.086 129.5,228C 128.584,228.374 127.75,228.874 127,229.5C 127.077,228.262 126.911,227.262 126.5,226.5C 125.197,227.718 124.197,227.385 123.5,225.5C 122.522,225.977 121.689,226.643 121,227.5C 121,225.5 121,223.5 121,221.5C 118.647,223.86 116.647,226.527 115,229.5C 114.992,227.179 115.825,225.179 117.5,223.5C 119.214,220.787 121.547,218.787 124.5,217.5 Z"/></g>
<g><path style="opacity:1" fill="#838a95" d="M 377.5,248.5 C 388.511,248.548 399.511,248.881 410.5,249.5C 410.443,250.609 410.11,251.609 409.5,252.5C 398.5,253.833 387.5,253.833 376.5,252.5C 376.433,251.041 376.766,249.708 377.5,248.5 Z"/></g>
<g><path style="opacity:1" fill="#71787a" d="M 415.5,226.5 C 415.833,226.5 416.167,226.5 416.5,226.5C 416.5,226.833 416.5,227.167 416.5,227.5C 416.414,228.496 416.748,229.329 417.5,230C 424.492,230.5 431.492,230.666 438.5,230.5C 438.5,230.833 438.5,231.167 438.5,231.5C 437.799,237.084 436.799,242.751 435.5,248.5C 433.869,250.297 431.869,251.464 429.5,252C 424.504,252.611 419.504,253.111 414.5,253.5C 414.509,251.692 414.009,250.025 413,248.5C 412.667,248.833 412.333,249.167 412,249.5C 411.722,248.584 411.222,247.918 410.5,247.5C 411.241,244.587 411.741,241.587 412,238.5C 412.179,241.553 412.679,244.553 413.5,247.5C 414.251,246.624 414.751,245.624 415,244.5C 415.495,246.473 415.662,248.473 415.5,250.5C 419.188,250.219 422.855,249.719 426.5,249C 433.305,244.544 433.972,239.544 428.5,234C 424.514,233.501 420.514,233.334 416.5,233.5C 416.663,235.857 416.497,238.19 416,240.5C 415.501,235.845 415.334,231.179 415.5,226.5 Z"/></g>
<g><path style="opacity:0.961" fill="#9aa2a7" d="M 65.5,243.5 C 66.7498,243.577 67.5831,244.244 68,245.5C 68.3333,248.167 68.6667,250.833 69,253.5C 69.1981,251.618 69.6981,249.952 70.5,248.5C 70.6662,254.842 70.4995,261.175 70,267.5C 68.9635,264.247 68.2969,260.914 68,257.5C 67.6667,258.833 67.3333,260.167 67,261.5C 66.6667,259.5 66.3333,257.5 66,255.5C 65.5357,256.094 65.369,256.761 65.5,257.5C 64.1756,253.168 64.1756,248.501 65.5,243.5 Z"/></g>
<g><path style="opacity:1" fill="#908d8d" d="M 346.5,277.5 C 346.784,279.415 346.451,281.081 345.5,282.5C 344.71,283.609 344.21,284.942 344,286.5C 342.488,287.257 341.154,288.257 340,289.5C 340.807,284.554 341.807,279.554 343,274.5C 343.391,269.146 343.891,263.812 344.5,258.5C 344.334,250.493 344.5,242.493 345,234.5C 344.993,240.704 345.993,241.37 348,236.5C 347.834,250.168 347.334,263.835 346.5,277.5 Z"/></g>
<g><path style="opacity:1" fill="#969996" d="M 438.5,231.5 C 438.5,236.833 438.5,242.167 438.5,247.5C 437.694,248.868 436.694,250.201 435.5,251.5C 436.711,252.72 436.711,253.887 435.5,255C 431.833,255.167 428.167,255.333 424.5,255.5C 420.313,255.429 416.313,254.762 412.5,253.5C 411.914,253.709 411.414,254.043 411,254.5C 410.722,253.584 410.222,252.918 409.5,252.5C 410.11,251.609 410.443,250.609 410.5,249.5C 410.5,248.833 410.5,248.167 410.5,247.5C 411.222,247.918 411.722,248.584 412,249.5C 412.333,249.167 412.667,248.833 413,248.5C 414.009,250.025 414.509,251.692 414.5,253.5C 419.504,253.111 424.504,252.611 429.5,252C 431.869,251.464 433.869,250.297 435.5,248.5C 436.799,242.751 437.799,237.084 438.5,231.5 Z"/></g>
<g><path style="opacity:1" fill="#3f4042" d="M 273.5,244.5 C 278.54,246.533 283.873,247.033 289.5,246C 290,245.5 290.5,245 291,244.5C 291.667,246.5 291.667,248.5 291,250.5C 288.782,248.381 286.282,248.048 283.5,249.5C 285.036,252.785 287.369,254.119 290.5,253.5C 291.386,254.325 291.719,255.325 291.5,256.5C 291.719,257.675 291.386,258.675 290.5,259.5C 288.183,256.683 285.683,254.016 283,251.5C 280.713,253.054 278.546,254.721 276.5,256.5C 275.026,257.436 274.026,258.77 273.5,260.5C 273.167,260.5 272.833,260.5 272.5,260.5C 272.187,257.753 272.52,255.086 273.5,252.5C 274.192,253.025 274.692,253.692 275,254.5C 276.925,253.12 278.759,251.62 280.5,250C 278.231,249.242 276.064,249.409 274,250.5C 273.505,248.527 273.338,246.527 273.5,244.5 Z"/></g>
<g><path style="opacity:1" fill="#86929f" d="M 356.5,244.5 C 356.5,245.167 356.5,245.833 356.5,246.5C 356.281,247.675 356.614,248.675 357.5,249.5C 363.216,249.215 368.55,248.215 373.5,246.5C 374.461,248.265 374.795,250.265 374.5,252.5C 370.353,253.325 366.019,253.825 361.5,254C 360.944,254.383 360.611,254.883 360.5,255.5C 360.167,255.5 359.833,255.5 359.5,255.5C 356.482,255.296 353.482,254.963 350.5,254.5C 350.334,250.154 350.501,245.821 351,241.5C 351.988,244.424 352.654,247.424 353,250.5C 353.346,247.424 354.012,244.424 355,241.5C 355.232,242.737 355.732,243.737 356.5,244.5 Z"/></g>
<g><path style="opacity:0.741" fill="#e8ebee" d="M 438.5,247.5 C 438.794,251.115 437.794,254.282 435.5,257C 410.592,255.856 385.592,255.356 360.5,255.5C 360.611,254.883 360.944,254.383 361.5,254C 366.019,253.825 370.353,253.325 374.5,252.5C 375.167,252.5 375.833,252.5 376.5,252.5C 387.5,253.833 398.5,253.833 409.5,252.5C 410.222,252.918 410.722,253.584 411,254.5C 411.414,254.043 411.914,253.709 412.5,253.5C 416.313,254.762 420.313,255.429 424.5,255.5C 428.167,255.333 431.833,255.167 435.5,255C 436.711,253.887 436.711,252.72 435.5,251.5C 436.694,250.201 437.694,248.868 438.5,247.5 Z"/></g>
<g><path style="opacity:1" fill="#838480" d="M 102.5,260.5 C 102.5,261.5 102.5,262.5 102.5,263.5C 101.801,267.435 101.801,271.435 102.5,275.5C 100.833,275.5 99.1667,275.5 97.5,275.5C 96.4485,271.574 95.7818,267.574 95.5,263.5C 96.3288,256.345 96.8288,249.011 97,241.5C 97.3333,249.833 97.6667,258.167 98,266.5C 98.2889,257.808 98.7889,249.141 99.5,240.5C 100.117,240.389 100.617,240.056 101,239.5C 101.171,246.679 101.671,253.679 102.5,260.5 Z"/></g>
<g><path style="opacity:1" fill="#bfcfd8" d="M 340.5,252.5 C 340.326,255.874 339.826,259.207 339,262.5C 338.021,264.32 336.521,265.487 334.5,266C 318.479,266.755 302.479,266.589 286.5,265.5C 281.676,264.787 277.343,263.12 273.5,260.5C 274.026,258.77 275.026,257.436 276.5,256.5C 276.393,258.379 276.893,258.712 278,257.5C 279.734,258.249 281.567,258.749 283.5,259C 280.629,259.118 277.962,259.784 275.5,261C 294.975,261.611 314.641,261.611 334.5,261C 336.387,258.05 338.387,255.216 340.5,252.5 Z"/></g>
<g><path style="opacity:1" fill="#a3b4bf" d="M 191.5,259.5 C 193.167,259.5 194.833,259.5 196.5,259.5C 208.518,259.534 220.518,260.034 232.5,261C 245.819,263.393 259.153,264.227 272.5,263.5C 272.684,265.925 273.351,265.925 274.5,263.5C 275.736,264.246 277.07,264.579 278.5,264.5C 279.092,269.099 277.425,270.766 273.5,269.5C 272.391,268.71 271.058,268.21 269.5,268C 248.805,266.806 228.138,265.139 207.5,263C 201.897,262.424 196.564,261.257 191.5,259.5 Z"/></g>
<g><path style="opacity:1" fill="#c4c4bf" d="M 99.5,204.5 C 99.3341,209.511 99.5007,214.511 100,219.5C 100.667,218.167 101.333,218.167 102,219.5C 102.333,212.5 102.667,205.5 103,198.5C 103.333,200.167 103.667,201.833 104,203.5C 104.953,200.568 105.453,197.568 105.5,194.5C 106.268,195.263 106.768,196.263 107,197.5C 107.983,194.681 108.483,192.014 108.5,189.5C 109.662,191.824 110.829,194.158 112,196.5C 113.558,195.655 114.558,196.321 115,198.5C 116.356,197.62 117.856,197.286 119.5,197.5C 119.232,199.099 119.566,200.432 120.5,201.5C 122.36,202.939 124.027,204.605 125.5,206.5C 123.284,207.03 121.118,206.363 119,204.5C 117.787,207.768 117.454,211.101 118,214.5C 118.422,212.645 118.922,210.811 119.5,209C 119.85,207.743 120.517,207.409 121.5,208C 120.037,213.106 118.703,218.273 117.5,223.5C 115.825,225.179 114.992,227.179 115,229.5C 116.647,226.527 118.647,223.86 121,221.5C 121,223.5 121,225.5 121,227.5C 121.689,226.643 122.522,225.977 123.5,225.5C 124.197,227.385 125.197,227.718 126.5,226.5C 126.911,227.262 127.077,228.262 127,229.5C 127.75,228.874 128.584,228.374 129.5,228C 128.346,227.086 128.513,226.253 130,225.5C 130.667,227.833 130.667,230.167 130,232.5C 129.5,233.667 128.667,234.5 127.5,235C 128.971,236.919 128.638,237.919 126.5,238C 125.95,236.155 124.95,234.655 123.5,233.5C 122.888,235.076 122.555,236.743 122.5,238.5C 121.778,238.082 121.278,237.416 121,236.5C 119.975,240.666 121.475,244.166 125.5,247C 121.74,248.176 118.907,247.01 117,243.5C 116.219,244.729 115.719,246.062 115.5,247.5C 117.131,252.759 119.297,257.759 122,262.5C 123.11,260.963 124.61,260.297 126.5,260.5C 126.5,261.833 126.5,263.167 126.5,264.5C 125.5,264.833 124.833,265.5 124.5,266.5C 122.938,266.733 121.605,267.4 120.5,268.5C 118.123,270.039 115.623,271.373 113,272.5C 112.085,271.672 111.419,270.672 111,269.5C 109.907,271.349 108.574,273.016 107,274.5C 106.912,268.81 106.079,263.143 104.5,257.5C 104.334,251.491 104.501,245.491 105,239.5C 105.71,240.973 106.876,241.64 108.5,241.5C 108.338,239.473 108.505,237.473 109,235.5C 109.407,239.284 110.241,242.951 111.5,246.5C 111.327,248.038 110.994,249.538 110.5,251C 110.613,252.28 111.28,253.113 112.5,253.5C 113.191,248.617 113.857,243.784 114.5,239C 113.36,237.027 112.027,235.193 110.5,233.5C 112.673,229.802 113.507,225.802 113,221.5C 112.572,225.226 111.239,228.559 109,231.5C 107.364,219.609 106.364,219.609 106,231.5C 104.755,225.61 104.088,219.61 104,213.5C 103.166,219.67 102.332,225.837 101.5,232C 102.34,241.482 102.673,250.982 102.5,260.5C 101.671,253.679 101.171,246.679 101,239.5C 100.617,240.056 100.117,240.389 99.5,240.5C 99.666,235.156 99.4994,229.823 99,224.5C 97.6839,225.974 96.6839,227.641 96,229.5C 95.6667,224.833 95.3333,220.167 95,215.5C 94.7216,214.584 94.2216,213.918 93.5,213.5C 93.3433,212.127 93.51,210.793 94,209.5C 95.0432,213.226 95.5432,212.893 95.5,208.5C 96.4025,205.609 96.7359,202.609 96.5,199.5C 97.0069,193.796 97.8403,188.129 99,182.5C 98.1716,189.836 98.3383,197.169 99.5,204.5 Z"/></g>
<g><path style="opacity:1" fill="#181f26" d="M 272.5,260.5 C 272.833,260.5 273.167,260.5 273.5,260.5C 277.343,263.12 281.676,264.787 286.5,265.5C 287.718,266.161 289.051,266.828 290.5,267.5C 286.875,268.988 283.209,270.321 279.5,271.5C 276.91,271.918 274.577,272.918 272.5,274.5C 272.167,273.667 271.833,272.833 271.5,272C 271.684,270.624 272.351,269.791 273.5,269.5C 277.425,270.766 279.092,269.099 278.5,264.5C 277.07,264.579 275.736,264.246 274.5,263.5C 273.351,265.925 272.684,265.925 272.5,263.5C 272.5,262.5 272.5,261.5 272.5,260.5 Z"/></g>
<g><path style="opacity:1" fill="#9dafbf" d="M 341.5,259.5 C 341.665,263.182 341.499,266.848 341,270.5C 340.768,269.263 340.268,268.263 339.5,267.5C 340.562,266.425 340.562,265.425 339.5,264.5C 337.946,266.933 337.28,269.6 337.5,272.5C 317.993,272.83 298.659,272.497 279.5,271.5C 283.209,270.321 286.875,268.988 290.5,267.5C 289.051,266.828 287.718,266.161 286.5,265.5C 302.479,266.589 318.479,266.755 334.5,266C 336.521,265.487 338.021,264.32 339,262.5C 339.826,259.207 340.326,255.874 340.5,252.5C 341.51,254.013 341.843,256.347 341.5,259.5 Z"/></g>
<g><path style="opacity:1" fill="#576169" d="M 75.5,241.5 C 75.5,241.833 75.5,242.167 75.5,242.5C 75.1818,247.032 75.5151,251.366 76.5,255.5C 76.3359,258.187 76.5026,260.854 77,263.5C 78.1882,262.437 78.6882,261.103 78.5,259.5C 82.7498,259.639 86.9165,260.305 91,261.5C 92.7866,261.241 94.2866,260.575 95.5,259.5C 95.5,260.833 95.5,262.167 95.5,263.5C 95.7818,267.574 96.4485,271.574 97.5,275.5C 88.9832,275.174 80.6499,275.507 72.5,276.5C 71.7321,277.263 71.2321,278.263 71,279.5C 68.5363,274.869 67.203,269.869 67,264.5C 66.7679,265.737 66.2679,266.737 65.5,267.5C 65.5,264.167 65.5,260.833 65.5,257.5C 65.369,256.761 65.5357,256.094 66,255.5C 66.3333,257.5 66.6667,259.5 67,261.5C 67.3333,260.167 67.6667,258.833 68,257.5C 68.2969,260.914 68.9635,264.247 70,267.5C 70.4995,261.175 70.6662,254.842 70.5,248.5C 70.3433,247.127 70.51,245.793 71,244.5C 71.3333,245.167 71.6667,245.833 72,246.5C 72.2886,253.208 72.9552,259.875 74,266.5C 74.1706,257.99 74.6706,249.657 75.5,241.5 Z"/></g>
<g><path style="opacity:1" fill="#5b6a74" d="M 227.5,275.5 C 218.833,275.5 210.167,275.5 201.5,275.5C 184.5,275.5 167.5,275.5 150.5,275.5C 149.127,275.657 147.793,275.49 146.5,275C 151.171,273.741 151.337,272.907 147,272.5C 143.413,273.388 139.913,274.388 136.5,275.5C 131.09,275.066 125.756,274.233 120.5,273C 124.046,271.826 127.713,271.16 131.5,271C 128.444,269.224 125.278,269.057 122,270.5C 121.283,269.956 120.783,269.289 120.5,268.5C 121.605,267.4 122.938,266.733 124.5,266.5C 135.038,264.461 145.705,263.961 156.5,265C 180.5,268.223 204.5,271.223 228.5,274C 227.944,274.383 227.611,274.883 227.5,275.5 Z"/></g>
<g><path style="opacity:1" fill="#70828f" d="M 166.5,260.5 C 178.6,262.896 190.933,264.73 203.5,266C 225.69,267.002 247.69,269.168 269.5,272.5C 270.386,273.325 270.719,274.325 270.5,275.5C 262.167,275.5 253.833,275.5 245.5,275.5C 239.5,275.5 233.5,275.5 227.5,275.5C 227.611,274.883 227.944,274.383 228.5,274C 204.5,271.223 180.5,268.223 156.5,265C 145.705,263.961 135.038,264.461 124.5,266.5C 124.833,265.5 125.5,264.833 126.5,264.5C 133.119,263.743 139.785,263.243 146.5,263C 146.167,262.667 145.833,262.333 145.5,262C 146.333,261.833 147.167,261.667 148,261.5C 153.472,262.546 158.972,262.712 164.5,262C 163.167,261.667 161.833,261.333 160.5,261C 162.473,260.505 164.473,260.338 166.5,260.5 Z"/></g>
<g><path style="opacity:1" fill="#8fa1af" d="M 161.5,252.5 C 163.527,252.338 165.527,252.505 167.5,253C 167.167,253.333 166.833,253.667 166.5,254C 174.066,258.815 182.399,260.649 191.5,259.5C 196.564,261.257 201.897,262.424 207.5,263C 228.138,265.139 248.805,266.806 269.5,268C 271.058,268.21 272.391,268.71 273.5,269.5C 272.351,269.791 271.684,270.624 271.5,272C 271.833,272.833 272.167,273.667 272.5,274.5C 274.577,272.918 276.91,271.918 279.5,271.5C 298.659,272.497 317.993,272.83 337.5,272.5C 337.28,269.6 337.946,266.933 339.5,264.5C 340.562,265.425 340.562,266.425 339.5,267.5C 339.599,270.237 339.265,272.904 338.5,275.5C 338.5,276.167 338.167,276.5 337.5,276.5C 306.662,276.831 275.995,276.498 245.5,275.5C 253.833,275.5 262.167,275.5 270.5,275.5C 270.719,274.325 270.386,273.325 269.5,272.5C 247.69,269.168 225.69,267.002 203.5,266C 190.933,264.73 178.6,262.896 166.5,260.5C 164.898,258.926 162.898,258.259 160.5,258.5C 160.5,257.167 160.5,255.833 160.5,254.5C 158.143,254.663 155.81,254.497 153.5,254C 156.365,253.817 159.031,253.317 161.5,252.5 Z"/></g>
<g><path style="opacity:1" fill="#98a6ae" d="M 279.5,265.5 C 285.997,266.159 286.164,267.492 280,269.5C 279.51,268.207 279.343,266.873 279.5,265.5 Z"/></g>
<g><path style="opacity:1" fill="#c6bcae" d="M 118.5,290.5 C 118.5,290.833 118.5,291.167 118.5,291.5C 102.804,291.491 87.1374,291.158 71.5,290.5C 80.8333,290.5 90.1667,290.5 99.5,290.5C 99.3398,288.801 99.5065,287.134 100,285.5C 100.122,287.437 100.955,288.77 102.5,289.5C 103.397,288.402 104.23,288.402 105,289.5C 105.121,287.273 105.954,285.44 107.5,284C 106.317,281.845 106.65,279.845 108.5,278C 107.833,277.333 107.167,276.667 106.5,276C 108.286,275.215 109.786,274.049 111,272.5C 115.057,275.62 119.223,277.62 123.5,278.5C 123.833,279.167 124.167,279.833 124.5,280.5C 123.284,281.096 121.951,281.263 120.5,281C 127.374,287.05 127.041,287.717 119.5,283C 117.888,282.28 116.388,282.446 115,283.5C 114.311,282.643 113.478,281.977 112.5,281.5C 112.704,282.529 112.204,283.529 111,284.5C 110.667,283.5 110.333,282.5 110,281.5C 108.578,284.03 108.245,286.697 109,289.5C 109.669,286.972 110.502,286.972 111.5,289.5C 113.743,290.474 116.076,290.808 118.5,290.5 Z"/></g>
<g><path style="opacity:1" fill="#6b7d92" d="M 150.5,276.5 C 150.5,276.167 150.5,275.833 150.5,275.5C 167.5,275.5 184.5,275.5 201.5,275.5C 231.831,277.265 262.164,278.931 292.5,280.5C 255.465,280.538 218.465,279.538 181.5,277.5C 171.347,276.506 161.014,276.172 150.5,276.5 Z"/></g>
<g><path style="opacity:1" fill="#5f6466" d="M 150.5,276.5 C 161.014,276.172 171.347,276.506 181.5,277.5C 172.5,277.5 163.5,277.5 154.5,277.5C 151.278,277.108 148.278,277.608 145.5,279C 146.833,279 148.167,279 149.5,279C 149.167,279.333 148.833,279.667 148.5,280C 150.935,280.075 151.602,280.908 150.5,282.5C 147.482,282.335 144.482,282.502 141.5,283C 140.748,283.671 140.414,284.504 140.5,285.5C 136.844,284.341 133.178,283.174 129.5,282C 133.5,281.333 133.5,280.667 129.5,280C 129.833,279.667 130.167,279.333 130.5,279C 128.5,278.667 126.5,278.333 124.5,278C 128.406,276.566 132.406,276.233 136.5,277C 135.328,277.419 134.328,278.085 133.5,279C 135.845,279.17 138.179,278.837 140.5,278C 140.167,277.667 139.833,277.333 139.5,277C 143.152,276.501 146.818,276.335 150.5,276.5 Z"/></g>
<g><path style="opacity:1" fill="#556577" d="M 154.5,277.5 C 163.5,277.5 172.5,277.5 181.5,277.5C 218.465,279.538 255.465,280.538 292.5,280.5C 306.677,280.171 320.677,280.504 334.5,281.5C 333.833,281.5 333.5,281.833 333.5,282.5C 273.631,282.376 213.965,280.71 154.5,277.5 Z"/></g>
<g><path style="opacity:1" fill="#7d90a4" d="M 201.5,275.5 C 210.167,275.5 218.833,275.5 227.5,275.5C 233.5,275.5 239.5,275.5 245.5,275.5C 275.995,276.498 306.662,276.831 337.5,276.5C 337.162,278.854 336.662,281.187 336,283.5C 335.722,282.584 335.222,281.918 334.5,281.5C 320.677,280.504 306.677,280.171 292.5,280.5C 262.164,278.931 231.831,277.265 201.5,275.5 Z"/></g>
<g><path style="opacity:1" fill="#a49e96" d="M 104.5,257.5 C 106.079,263.143 106.912,268.81 107,274.5C 108.574,273.016 109.907,271.349 111,269.5C 111.419,270.672 112.085,271.672 113,272.5C 115.623,271.373 118.123,270.039 120.5,268.5C 120.783,269.289 121.283,269.956 122,270.5C 125.278,269.057 128.444,269.224 131.5,271C 127.713,271.16 124.046,271.826 120.5,273C 125.756,274.233 131.09,275.066 136.5,275.5C 139.913,274.388 143.413,273.388 147,272.5C 151.337,272.907 151.171,273.741 146.5,275C 147.793,275.49 149.127,275.657 150.5,275.5C 150.5,275.833 150.5,276.167 150.5,276.5C 146.818,276.335 143.152,276.501 139.5,277C 139.833,277.333 140.167,277.667 140.5,278C 138.179,278.837 135.845,279.17 133.5,279C 134.328,278.085 135.328,277.419 136.5,277C 132.406,276.233 128.406,276.566 124.5,278C 126.5,278.333 128.5,278.667 130.5,279C 130.167,279.333 129.833,279.667 129.5,280C 133.5,280.667 133.5,281.333 129.5,282C 133.178,283.174 136.844,284.341 140.5,285.5C 141.557,286.206 141.224,286.539 139.5,286.5C 137.453,286.489 135.453,286.156 133.5,285.5C 133.001,286.756 131.668,287.59 129.5,288C 134.139,289.128 138.805,290.128 143.5,291C 134.353,291.419 125.519,289.919 117,286.5C 116.5,286.667 116,286.833 115.5,287C 117.717,288.275 120.051,289.275 122.5,290C 121.207,290.49 119.873,290.657 118.5,290.5C 116.076,290.808 113.743,290.474 111.5,289.5C 110.502,286.972 109.669,286.972 109,289.5C 108.245,286.697 108.578,284.03 110,281.5C 110.333,282.5 110.667,283.5 111,284.5C 112.204,283.529 112.704,282.529 112.5,281.5C 113.478,281.977 114.311,282.643 115,283.5C 116.388,282.446 117.888,282.28 119.5,283C 127.041,287.717 127.374,287.05 120.5,281C 121.951,281.263 123.284,281.096 124.5,280.5C 124.167,279.833 123.833,279.167 123.5,278.5C 119.223,277.62 115.057,275.62 111,272.5C 109.786,274.049 108.286,275.215 106.5,276C 107.167,276.667 107.833,277.333 108.5,278C 106.65,279.845 106.317,281.845 107.5,284C 105.954,285.44 105.121,287.273 105,289.5C 104.23,288.402 103.397,288.402 102.5,289.5C 102.5,285.167 102.5,280.833 102.5,276.5C 101.167,276.5 99.8333,276.5 98.5,276.5C 98.5,277.5 98.5,278.5 98.5,279.5C 97.596,278.791 97.2627,277.791 97.5,276.5C 88.9867,276.607 80.6533,276.607 72.5,276.5C 80.6499,275.507 88.9832,275.174 97.5,275.5C 99.1667,275.5 100.833,275.5 102.5,275.5C 101.801,271.435 101.801,267.435 102.5,263.5C 103.314,265.631 103.814,267.964 104,270.5C 104.499,266.179 104.666,261.846 104.5,257.5 Z"/></g>
<g><path style="opacity:1" fill="#46515d" d="M 154.5,277.5 C 213.965,280.71 273.631,282.376 333.5,282.5C 333.5,284.833 333.5,287.167 333.5,289.5C 292.504,290.213 251.504,290.546 210.5,290.5C 188.993,290.831 167.66,290.497 146.5,289.5C 193.835,289.667 241.168,289.5 288.5,289C 298.876,288.839 309.209,288.172 319.5,287C 299.503,286.5 279.503,286.333 259.5,286.5C 247.34,285.669 235.007,285.169 222.5,285C 249.833,284.667 277.167,284.333 304.5,284C 258.5,282.944 212.5,281.778 166.5,280.5C 161.833,280.667 157.167,280.833 152.5,281C 153.167,281.333 153.833,281.667 154.5,282C 153.207,282.49 151.873,282.657 150.5,282.5C 151.602,280.908 150.935,280.075 148.5,280C 148.833,279.667 149.167,279.333 149.5,279C 148.167,279 146.833,279 145.5,279C 148.278,277.608 151.278,277.108 154.5,277.5 Z"/></g>
<g><path style="opacity:0.996" fill="#3b3a3a" d="M 72.5,276.5 C 80.6533,276.607 88.9867,276.607 97.5,276.5C 97.2627,277.791 97.596,278.791 98.5,279.5C 98.6621,281.527 98.4955,283.527 98,285.5C 92.8796,286.698 87.5463,286.698 82,285.5C 79,286.167 76,286.833 73,287.5C 71.8333,287.167 70.6667,286.833 69.5,286.5C 68.9495,284.343 68.2829,282.343 67.5,280.5C 67.2012,276.072 66.5346,271.739 65.5,267.5C 66.2679,266.737 66.7679,265.737 67,264.5C 67.203,269.869 68.5363,274.869 71,279.5C 71.2321,278.263 71.7321,277.263 72.5,276.5 Z"/></g>
<g><path style="opacity:1" fill="#333e4a" d="M 259.5,286.5 C 220.828,286.167 182.161,286.5 143.5,287.5C 144.602,288.176 145.602,288.842 146.5,289.5C 143.509,289.834 141.176,288.834 139.5,286.5C 141.224,286.539 141.557,286.206 140.5,285.5C 140.414,284.504 140.748,283.671 141.5,283C 144.482,282.502 147.482,282.335 150.5,282.5C 151.873,282.657 153.207,282.49 154.5,282C 153.833,281.667 153.167,281.333 152.5,281C 157.167,280.833 161.833,280.667 166.5,280.5C 212.5,281.778 258.5,282.944 304.5,284C 277.167,284.333 249.833,284.667 222.5,285C 235.007,285.169 247.34,285.669 259.5,286.5 Z"/></g>
<g><path style="opacity:0.996" fill="#b8b0a5" d="M 342.5,236.5 C 343.167,243.833 343.833,251.167 344.5,258.5C 343.891,263.812 343.391,269.146 343,274.5C 341.807,279.554 340.807,284.554 340,289.5C 341.154,288.257 342.488,287.257 344,286.5C 344.21,284.942 344.71,283.609 345.5,282.5C 345.579,285.271 345.079,287.937 344,290.5C 343.578,292.426 342.411,293.426 340.5,293.5C 340.389,292.883 340.056,292.383 339.5,292C 333.843,291.501 328.176,291.334 322.5,291.5C 327.017,290.834 331.683,290.167 336.5,289.5C 338.898,284.894 339.565,280.227 338.5,275.5C 339.265,272.904 339.599,270.237 339.5,267.5C 340.268,268.263 340.768,269.263 341,270.5C 341.499,266.848 341.665,263.182 341.5,259.5C 342.492,252.018 342.825,244.352 342.5,236.5 Z"/></g>
<g><path style="opacity:1" fill="#654f3f" d="M 102.5,289.5 C 100.955,288.77 100.122,287.437 100,285.5C 99.5065,287.134 99.3398,288.801 99.5,290.5C 90.1667,290.5 80.8333,290.5 71.5,290.5C 70.1667,290.5 68.8333,290.5 67.5,290.5C 67.5,287.167 67.5,283.833 67.5,280.5C 68.2829,282.343 68.9495,284.343 69.5,286.5C 70.6667,286.833 71.8333,287.167 73,287.5C 76,286.833 79,286.167 82,285.5C 87.5463,286.698 92.8796,286.698 98,285.5C 98.4955,283.527 98.6621,281.527 98.5,279.5C 98.5,278.5 98.5,277.5 98.5,276.5C 99.8333,276.5 101.167,276.5 102.5,276.5C 102.5,280.833 102.5,285.167 102.5,289.5 Z"/></g>
<g><path style="opacity:1" fill="#262d35" d="M 259.5,286.5 C 279.503,286.333 299.503,286.5 319.5,287C 309.209,288.172 298.876,288.839 288.5,289C 241.168,289.5 193.835,289.667 146.5,289.5C 145.602,288.842 144.602,288.176 143.5,287.5C 182.161,286.5 220.828,286.167 259.5,286.5 Z"/></g>
<g><path style="opacity:0.997" fill="#757372" d="M 338.5,275.5 C 339.565,280.227 338.898,284.894 336.5,289.5C 331.683,290.167 327.017,290.834 322.5,291.5C 312.985,291.173 303.652,291.506 294.5,292.5C 269.498,292.667 244.498,292.5 219.5,292C 216.305,291.819 213.305,291.319 210.5,290.5C 251.504,290.546 292.504,290.213 333.5,289.5C 333.5,287.167 333.5,284.833 333.5,282.5C 333.5,281.833 333.833,281.5 334.5,281.5C 335.222,281.918 335.722,282.584 336,283.5C 336.662,281.187 337.162,278.854 337.5,276.5C 338.167,276.5 338.5,276.167 338.5,275.5 Z"/></g>
<g><path style="opacity:0.996" fill="#69584a" d="M 139.5,286.5 C 141.176,288.834 143.509,289.834 146.5,289.5C 167.66,290.497 188.993,290.831 210.5,290.5C 213.305,291.319 216.305,291.819 219.5,292C 244.498,292.5 269.498,292.667 294.5,292.5C 302.352,292.175 310.018,292.508 317.5,293.5C 254.167,293.5 190.833,293.5 127.5,293.5C 124.689,292.525 121.689,291.858 118.5,291.5C 118.5,291.167 118.5,290.833 118.5,290.5C 119.873,290.657 121.207,290.49 122.5,290C 120.051,289.275 117.717,288.275 115.5,287C 116,286.833 116.5,286.667 117,286.5C 125.519,289.919 134.353,291.419 143.5,291C 138.805,290.128 134.139,289.128 129.5,288C 131.668,287.59 133.001,286.756 133.5,285.5C 135.453,286.156 137.453,286.489 139.5,286.5 Z"/></g>
<g><path style="opacity:0.694" fill="#ede7dc" d="M 67.5,290.5 C 68.8333,290.5 70.1667,290.5 71.5,290.5C 87.1374,291.158 102.804,291.491 118.5,291.5C 121.689,291.858 124.689,292.525 127.5,293.5C 108.83,293.667 90.1637,293.5 71.5,293C 69.9336,292.392 68.6002,291.558 67.5,290.5 Z"/></g>
<g><path style="opacity:0.647" fill="#a0907a" d="M 294.5,292.5 C 303.652,291.506 312.985,291.173 322.5,291.5C 328.176,291.334 333.843,291.501 339.5,292C 340.056,292.383 340.389,292.883 340.5,293.5C 332.833,293.5 325.167,293.5 317.5,293.5C 310.018,292.508 302.352,292.175 294.5,292.5 Z"/></g>
</svg>
