<?xml version="1.0" encoding="UTF-8"?>
<!DOCTYPE svg PUBLIC "-//W3C//DTD SVG 1.1//EN" "http://www.w3.org/Graphics/SVG/1.1/DTD/svg11.dtd">
<svg xmlns="http://www.w3.org/2000/svg" version="1.1" width="117px" height="103px" style="shape-rendering:geometricPrecision; text-rendering:geometricPrecision; image-rendering:optimizeQuality; fill-rule:evenodd; clip-rule:evenodd" xmlns:xlink="http://www.w3.org/1999/xlink">
<g><path style="opacity:0.646" fill="#808080" d="M 11.5,0.5 C 17.7114,0.0160954 23.7114,0.849429 29.5,3C 21.8597,2.85373 14.193,2.5204 6.5,2C 8.38172,1.80192 10.0484,1.30192 11.5,0.5 Z"/></g>
<g><path style="opacity:0.267" fill="#b7b7b7" d="M 79.5,-0.5 C 79.8333,-0.5 80.1667,-0.5 80.5,-0.5C 80.1667,2.16667 79.8333,2.16667 79.5,-0.5 Z"/></g>
<g><path style="opacity:0.012" fill="#fefffe" d="M 62.5,3.5 C 61.8333,2.16667 61.8333,2.16667 62.5,3.5 Z"/></g>
<g><path style="opacity:0.867" fill="#666666" d="M 31.5,4.5 C 32.9953,4.41483 33.9953,5.08149 34.5,6.5C 33.1667,7.83333 31.8333,7.83333 30.5,6.5C 30.8627,5.81654 31.1961,5.14987 31.5,4.5 Z"/></g>
<g><path style="opacity:0.004" fill="#fefffe" d="M 94.5,9.5 C 93.8333,8.16667 93.8333,8.16667 94.5,9.5 Z"/></g>
<g><path style="opacity:0.847" fill="#4f4f4f" d="M 51.5,5.5 C 55.7306,6.51505 56.8972,8.84838 55,12.5C 53.4571,10.6217 51.6238,9.12173 49.5,8C 50.3805,7.2917 51.0472,6.45837 51.5,5.5 Z"/></g>
<g><path style="opacity:0.98" fill="#494949" d="M 62.5,3.5 C 66.5355,5.84831 70.5355,8.18165 74.5,10.5C 72.0274,10.0882 70.6941,11.0882 70.5,13.5C 66.6998,11.0374 64.0332,7.70402 62.5,3.5 Z"/></g>
<g><path style="opacity:0.749" fill="#565656" d="M 13.5,12.5 C 23.3478,12.1729 33.0144,12.5062 42.5,13.5C 35.6457,13.176 28.979,13.5093 22.5,14.5C 21.8333,14.5 21.1667,14.5 20.5,14.5C 18.1667,13.8333 15.8333,13.1667 13.5,12.5 Z"/></g>
<g><path style="opacity:0.631" fill="#838383" d="M 94.5,9.5 C 98.9595,10.5644 102.626,12.8978 105.5,16.5C 104.998,17.521 104.332,17.6877 103.5,17C 100.798,14.0047 97.7985,11.5047 94.5,9.5 Z"/></g>
<g><path style="opacity:0.4" fill="#969696" d="M 13.5,12.5 C 15.8333,13.1667 18.1667,13.8333 20.5,14.5C 15.1563,14.666 9.82294,14.4994 4.5,14C 7.27841,12.6081 10.2784,12.1081 13.5,12.5 Z"/></g>
<g><path style="opacity:0.38" fill="#b0b0b0" d="M 81.5,13.5 C 83.099,13.2322 84.4324,13.5655 85.5,14.5C 84.7784,14.9175 84.2784,15.5842 84,16.5C 83.3021,15.3094 82.4687,14.3094 81.5,13.5 Z"/></g>
<g><path style="opacity:0.82" fill="#727272" d="M 36.5,16.5 C 38.288,16.2148 39.9547,16.5481 41.5,17.5C 39.0312,18.1681 36.6979,18.8347 34.5,19.5C 33.448,19.6495 32.448,19.4828 31.5,19C 33.3146,18.2432 34.9812,17.4098 36.5,16.5 Z"/></g>
<g><path style="opacity:0.969" fill="#202020" d="M 22.5,14.5 C 28.979,13.5093 35.6457,13.176 42.5,13.5C 50.7051,13.4427 57.3718,16.4427 62.5,22.5C 60.1759,22.8773 59.5092,23.8773 60.5,25.5C 58.6531,26.5729 56.6531,26.5729 54.5,25.5C 53.4019,24.603 53.4019,23.7697 54.5,23C 51.1832,22.5017 47.8499,22.335 44.5,22.5C 44.1667,22.5 43.8333,22.5 43.5,22.5C 43.5,22.1667 43.5,21.8333 43.5,21.5C 43.5,20.8333 43.1667,20.5 42.5,20.5C 41.8333,20.5 41.1667,20.5 40.5,20.5C 38.2646,20.7947 36.2646,20.4614 34.5,19.5C 36.6979,18.8347 39.0312,18.1681 41.5,17.5C 39.9547,16.5481 38.288,16.2148 36.5,16.5C 31.7474,16.1566 27.0807,15.49 22.5,14.5 Z"/></g>
<g><path style="opacity:0.967" fill="#151515" d="M 74.5,10.5 C 77.2406,10.7073 79.5739,11.7073 81.5,13.5C 82.4687,14.3094 83.3021,15.3094 84,16.5C 84.2784,15.5842 84.7784,14.9175 85.5,14.5C 89.3914,15.7274 91.3914,18.394 91.5,22.5C 91.3932,24.3786 91.8932,24.7119 93,23.5C 93.4955,25.4727 93.6621,27.4727 93.5,29.5C 92.8826,29.3893 92.3826,29.056 92,28.5C 90.5993,30.1922 88.7659,30.8588 86.5,30.5C 84.6203,30.7709 83.287,30.1042 82.5,28.5C 81.8592,27.5178 81.1925,26.5178 80.5,25.5C 81.0253,24.8076 81.6919,24.3076 82.5,24C 80.3594,23.4275 78.3594,22.5942 76.5,21.5C 74.4362,21.2381 73.1029,20.0714 72.5,18C 72.8333,17.6667 73.1667,17.3333 73.5,17C 72.2899,15.9609 71.2899,14.7942 70.5,13.5C 70.6941,11.0882 72.0274,10.0882 74.5,10.5 Z"/></g>
<g><path style="opacity:0.643" fill="#737373" d="M 105.5,18.5 C 108.076,18.7218 108.91,20.0551 108,22.5C 106.519,21.5291 105.685,20.1958 105.5,18.5 Z"/></g>
<g><path style="opacity:0.013" fill="#ececec" d="M 40.5,20.5 C 41.1667,20.5 41.8333,20.5 42.5,20.5C 43.1667,20.5 43.5,20.8333 43.5,21.5C 43.5,21.8333 43.5,22.1667 43.5,22.5C 41.9731,22.573 40.9731,21.9063 40.5,20.5 Z"/></g>
<g><path style="opacity:0.317" fill="#b2b2b2" d="M 44.5,22.5 C 47.8499,22.335 51.1832,22.5017 54.5,23C 53.4019,23.7697 53.4019,24.603 54.5,25.5C 51.1113,24.3901 47.778,23.3901 44.5,22.5 Z"/></g>
<g><path style="opacity:0.961" fill="#585858" d="M 62.5,22.5 C 66.1208,25.7829 69.7875,29.1162 73.5,32.5C 72.9984,33.521 72.3317,33.6877 71.5,33C 68.2084,29.8623 64.5418,27.3623 60.5,25.5C 59.5092,23.8773 60.1759,22.8773 62.5,22.5 Z"/></g>
<g><path style="opacity:0.651" fill="#838383" d="M 76.5,21.5 C 78.3594,22.5942 80.3594,23.4275 82.5,24C 81.6919,24.3076 81.0253,24.8076 80.5,25.5C 81.1925,26.5178 81.8592,27.5178 82.5,28.5C 79.0922,27.4222 77.0922,25.0889 76.5,21.5 Z"/></g>
<g><path style="opacity:0.798" fill="#5b5b5b" d="M 93.5,29.5 C 93.6621,27.4727 93.4955,25.4727 93,23.5C 91.8932,24.7119 91.3932,24.3786 91.5,22.5C 92.2216,22.0825 92.7216,21.4158 93,20.5C 94.6633,23.5603 94.8299,26.5603 93.5,29.5 Z"/></g>
<g><path style="opacity:0.576" fill="#9b9b9b" d="M 41.5,26.5 C 44.6741,26.9522 45.0075,27.9522 42.5,29.5C 40.4807,28.8671 40.1474,27.8671 41.5,26.5 Z"/></g>
<g><path style="opacity:0.914" fill="#5e5e5e" d="M 93.5,29.5 C 96.2956,32.7974 99.2956,35.9641 102.5,39C 102,39.1667 101.5,39.3333 101,39.5C 97.8815,37.3851 95.0482,34.8851 92.5,32C 90.2922,31.8091 88.2922,31.3091 86.5,30.5C 88.7659,30.8588 90.5993,30.1922 92,28.5C 92.3826,29.056 92.8826,29.3893 93.5,29.5 Z"/></g>
<g><path style="opacity:0.963" fill="#1f1f1f" d="M 29.5,52.5 C 26.4551,53.3664 23.6218,52.6997 21,50.5C 20.1667,51.3333 19.3333,52.1667 18.5,53C 20.8544,55.3728 22.1877,57.8728 22.5,60.5C 11.049,53.6462 7.88234,43.9795 13,31.5C 19.7481,23.2093 27.0815,22.5426 35,29.5C 37.2574,35.2686 36.7574,36.1019 33.5,32C 24.519,29.6425 20.3523,33.1425 21,42.5C 22.9779,46.6381 25.8112,49.9714 29.5,52.5 Z"/></g>
<g><path style="opacity:0.955" fill="#424242" d="M 52.5,31.5 C 57.4299,33.9138 57.5966,36.5804 53,39.5C 52.1667,38 51,36.8333 49.5,36C 51.1412,34.871 52.1412,33.371 52.5,31.5 Z"/></g>
<g><path style="opacity:0.788" fill="#808080" d="M 55.5,45.5 C 53.5853,45.2155 51.9187,45.5489 50.5,46.5C 47.1476,46.2163 44.1476,45.0496 41.5,43C 46.2437,43.6738 50.9104,44.5071 55.5,45.5 Z"/></g>
<g><path style="opacity:0.982" fill="#5a5a5a" d="M 41.5,48.5 C 39.5853,48.2155 37.9187,48.5489 36.5,49.5C 31.6957,47.534 28.529,44.2007 27,39.5C 31.3765,43.4281 36.2098,46.4281 41.5,48.5 Z"/></g>
<g><path style="opacity:0.878" fill="#707070" d="M 67.5,38.5 C 79.4182,39.3403 89.5849,44.3403 98,53.5C 99.8744,55.569 100.874,57.9023 101,60.5C 92.2653,49.5438 81.0986,42.2105 67.5,38.5 Z"/></g>
<g><path style="opacity:0.96" fill="#272727" d="M 55.5,45.5 C 63.5566,45.563 71.2233,47.2297 78.5,50.5C 79.0577,51.7899 80.0577,52.6232 81.5,53C 80.5494,53.7175 80.3828,54.5509 81,55.5C 85.7457,57.2175 85.579,58.2175 80.5,58.5C 79.8333,58.5 79.1667,58.5 78.5,58.5C 75.8981,56.1904 72.8981,54.3571 69.5,53C 63.0317,50.9003 56.6983,48.7337 50.5,46.5C 51.9187,45.5489 53.5853,45.2155 55.5,45.5 Z"/></g>
<g><path style="opacity:0.506" fill="#7f7f7f" d="M 95.5,41.5 C 95.8966,40.475 96.5632,40.3083 97.5,41C 104.649,46.4623 108.149,53.6289 108,62.5C 105.847,54.1775 101.681,47.1775 95.5,41.5 Z"/></g>
<g><path style="opacity:0.964" fill="#1b1b1b" d="M 29.5,52.5 C 39.8948,55.3481 50.2282,58.3481 60.5,61.5C 61.347,62.9663 62.6803,63.7996 64.5,64C 62.4062,65.3515 60.0728,65.8515 57.5,65.5C 49.8261,65.6664 42.1594,65.4997 34.5,65C 30.0002,64.5594 26.0002,63.0594 22.5,60.5C 22.1877,57.8728 20.8544,55.3728 18.5,53C 19.3333,52.1667 20.1667,51.3333 21,50.5C 23.6218,52.6997 26.4551,53.3664 29.5,52.5 Z"/></g>
<g><path style="opacity:0.968" fill="#2d2d2d" d="M 41.5,48.5 C 51.3443,50.2012 61.011,52.5345 70.5,55.5C 75.0655,59.9561 74.3989,61.6227 68.5,60.5C 57.4709,57.6023 46.8043,53.9357 36.5,49.5C 37.9187,48.5489 39.5853,48.2155 41.5,48.5 Z"/></g>
<g><path style="opacity:0.227" fill="#b9b9b9" d="M 7.5,58.5 C 6.66175,58.8417 6.32842,59.5084 6.5,60.5C 5.09524,58.3598 4.2619,56.0265 4,53.5C 5.17638,55.1957 6.34305,56.8624 7.5,58.5 Z"/></g>
<g><path style="opacity:0.979" fill="#242424" d="M 78.5,50.5 C 83.1967,52.1775 87.1967,54.8442 90.5,58.5C 88.7016,59.4629 87.3683,58.7962 86.5,56.5C 85.2612,58.0072 85.5946,59.1739 87.5,60C 86.5,60.3333 85.5,60.6667 84.5,61C 88.1271,63.1122 88.1271,64.7789 84.5,66C 85.5824,68.1705 86.5824,70.3372 87.5,72.5C 81.665,67.747 75.3317,63.747 68.5,60.5C 74.3989,61.6227 75.0655,59.9561 70.5,55.5C 73.1667,56.5 75.8333,57.5 78.5,58.5C 79.1667,59.8333 79.8333,59.8333 80.5,58.5C 85.579,58.2175 85.7457,57.2175 81,55.5C 80.3828,54.5509 80.5494,53.7175 81.5,53C 80.0577,52.6232 79.0577,51.7899 78.5,50.5 Z"/></g>
<g><path style="opacity:0.012" fill="#e3e3e3" d="M 81.5,59.5 C 82.2891,59.7828 82.9558,60.2828 83.5,61C 82.184,61.5281 81.5173,61.0281 81.5,59.5 Z"/></g>
<g><path style="opacity:0.737" fill="#626262" d="M 7.5,58.5 C 13.5295,66.8599 21.1961,73.3599 30.5,78C 19.8701,75.8829 11.8701,70.0496 6.5,60.5C 6.32842,59.5084 6.66175,58.8417 7.5,58.5 Z"/></g>
<g><path style="opacity:0.982" fill="#595959" d="M 60.5,61.5 C 63.1573,61.9348 65.4907,62.9348 67.5,64.5C 64.4164,66.1014 61.083,66.7681 57.5,66.5C 57.5,66.1667 57.5,65.8333 57.5,65.5C 60.0728,65.8515 62.4062,65.3515 64.5,64C 62.6803,63.7996 61.347,62.9663 60.5,61.5 Z"/></g>
<g><path style="opacity:0.979" fill="#1c1c1c" d="M 67.5,64.5 C 69.7028,64.6036 71.7028,65.2702 73.5,66.5C 73.5,67.1667 73.5,67.8333 73.5,68.5C 72.8826,68.6107 72.3826,68.944 72,69.5C 69.3333,68.8333 66.6667,68.1667 64,67.5C 63.3551,68.646 62.5217,69.646 61.5,70.5C 62.0253,71.1924 62.6919,71.6924 63.5,72C 62.2625,72.2321 61.2625,72.7321 60.5,73.5C 58.5,73.5 56.5,73.5 54.5,73.5C 47.6544,73.4271 40.9878,72.4271 34.5,70.5C 36.5,69.8333 38.5,69.1667 40.5,68.5C 46.1162,67.4598 51.7829,66.7931 57.5,66.5C 61.083,66.7681 64.4164,66.1014 67.5,64.5 Z"/></g>
<g><path style="opacity:0.971" fill="#101010" d="M 73.5,68.5 C 75.7506,71.7576 78.4172,74.7576 81.5,77.5C 78.876,78.1156 76.7093,77.1156 75,74.5C 74.5078,75.549 74.6744,76.549 75.5,77.5C 75.0431,78.2975 74.3764,78.6309 73.5,78.5C 69.7768,77.7033 66.1101,76.7033 62.5,75.5C 61.8333,74.8333 61.1667,74.1667 60.5,73.5C 61.2625,72.7321 62.2625,72.2321 63.5,72C 62.6919,71.6924 62.0253,71.1924 61.5,70.5C 62.5217,69.646 63.3551,68.646 64,67.5C 66.6667,68.1667 69.3333,68.8333 72,69.5C 72.3826,68.944 72.8826,68.6107 73.5,68.5 Z"/></g>
<g><path style="opacity:0.555" fill="#929292" d="M 40.5,68.5 C 38.5,69.1667 36.5,69.8333 34.5,70.5C 32.2872,70.152 30.2872,69.3187 28.5,68C 32.441,68.2674 36.441,68.4341 40.5,68.5 Z"/></g>
<g><path style="opacity:0.98" fill="#1f1f1f" d="M 73.5,66.5 C 87.5431,74.2017 97.2097,85.535 102.5,100.5C 102.5,101.167 102.5,101.833 102.5,102.5C 101.167,102.5 99.8333,102.5 98.5,102.5C 92.7519,91.7508 84.4185,83.7508 73.5,78.5C 74.3764,78.6309 75.0431,78.2975 75.5,77.5C 74.6744,76.549 74.5078,75.549 75,74.5C 76.7093,77.1156 78.876,78.1156 81.5,77.5C 78.4172,74.7576 75.7506,71.7576 73.5,68.5C 73.5,67.8333 73.5,67.1667 73.5,66.5 Z"/></g>
<g><path style="opacity:0.071" fill="#e2e3e2" d="M 11.5,74.5 C 10.8333,73.1667 10.8333,73.1667 11.5,74.5 Z"/></g>
<g><path style="opacity:0.863" fill="#7b7b7b" d="M 54.5,73.5 C 56.5,73.5 58.5,73.5 60.5,73.5C 61.1667,74.1667 61.8333,74.8333 62.5,75.5C 59.6275,75.1977 56.9608,74.531 54.5,73.5 Z"/></g>
<g><path style="opacity:0.971" fill="#141414" d="M 90.5,58.5 C 97.959,64.7478 102.292,72.7478 103.5,82.5C 103.821,87.6946 103.487,92.6946 102.5,97.5C 99.2873,88.0713 94.2873,79.738 87.5,72.5C 86.5824,70.3372 85.5824,68.1705 84.5,66C 88.1271,64.7789 88.1271,63.1122 84.5,61C 85.5,60.6667 86.5,60.3333 87.5,60C 85.5946,59.1739 85.2612,58.0072 86.5,56.5C 87.3683,58.7962 88.7016,59.4629 90.5,58.5 Z"/></g>
<g><path style="opacity:0.004" fill="#fefffe" d="M 32.5,81.5 C 31.8333,80.1667 31.8333,80.1667 32.5,81.5 Z"/></g>
<g><path style="opacity:0.976" fill="#4c4c4c" d="M 51.5,79.5 C 56.3247,79.4881 58.4914,81.8214 58,86.5C 55.1395,84.6875 52.9729,82.3542 51.5,79.5 Z"/></g>
<g><path style="opacity:0.722" fill="#858585" d="M 32.5,81.5 C 36.0399,81.7526 39.3733,82.4192 42.5,83.5C 40.5853,83.2155 38.9187,83.5489 37.5,84.5C 35.5659,83.8897 33.8993,82.8897 32.5,81.5 Z"/></g>
<g><path style="opacity:0.969" fill="#4f4f4f" d="M 11.5,74.5 C 17.2493,78.3726 23.2493,81.7059 29.5,84.5C 28.325,84.281 27.325,84.6143 26.5,85.5C 27.1925,86.5178 27.8592,87.5178 28.5,88.5C 21.4562,85.4817 15.7895,80.8151 11.5,74.5 Z"/></g>
<g><path style="opacity:0.957" fill="#424242" d="M 72.5,84.5 C 77.1655,85.8224 77.4989,87.8224 73.5,90.5C 70.4812,88.6257 70.1479,86.6257 72.5,84.5 Z"/></g>
<g><path style="opacity:0.047" fill="#c8c8c8" d="M 31.5,89.5 C 33.632,89.5544 34.9653,90.5544 35.5,92.5C 33.7697,91.9744 32.4363,90.9744 31.5,89.5 Z"/></g>
<g><path style="opacity:0.971" fill="#101010" d="M 37.5,84.5 C 38.9187,83.5489 40.5853,83.2155 42.5,83.5C 45.6883,83.6178 48.6883,84.4511 51.5,86C 52.8228,86.8159 53.4894,87.9826 53.5,89.5C 52.6993,91.0418 52.366,92.7085 52.5,94.5C 45.9917,94.7471 40.9917,94.0804 37.5,92.5C 36.8333,92.5 36.1667,92.5 35.5,92.5C 34.9653,90.5544 33.632,89.5544 31.5,89.5C 30.391,89.4431 29.391,89.1098 28.5,88.5C 27.8592,87.5178 27.1925,86.5178 26.5,85.5C 27.325,84.6143 28.325,84.281 29.5,84.5C 31.2161,84.6287 32.8828,84.962 34.5,85.5C 36.6282,86.6291 38.9615,86.7958 41.5,86C 40.255,85.2086 38.9217,84.7086 37.5,84.5 Z"/></g>
<g><path style="opacity:0.145" fill="#a7a7a7" d="M 37.5,84.5 C 38.9217,84.7086 40.255,85.2086 41.5,86C 38.9615,86.7958 36.6282,86.6291 34.5,85.5C 35.791,85.7373 36.791,85.404 37.5,84.5 Z"/></g>
<g><path style="opacity:0.982" fill="#444444" d="M 53.5,89.5 C 59.2162,91.3461 64.8828,93.3461 70.5,95.5C 70.1583,96.3382 69.4916,96.6716 68.5,96.5C 64.0889,95.8841 59.7556,94.8841 55.5,93.5C 54.4163,93.685 53.4163,94.0183 52.5,94.5C 52.366,92.7085 52.6993,91.0418 53.5,89.5 Z"/></g>
<g><path style="opacity:0.698" fill="#797979" d="M 6.5,82.5 C 6.89657,81.475 7.56323,81.3083 8.5,82C 13.4146,88.1168 19.4146,92.7835 26.5,96C 22.6194,95.5735 18.9527,94.2401 15.5,92C 11.9298,89.2661 8.92977,86.0995 6.5,82.5 Z"/></g>
<g><path style="opacity:0.814" fill="#5b5b5b" d="M 103.5,82.5 C 104.491,88.979 104.824,95.6457 104.5,102.5C 104.167,102.5 103.833,102.5 103.5,102.5C 103.672,101.508 103.338,100.842 102.5,100.5C 102.5,99.5 102.5,98.5 102.5,97.5C 103.487,92.6946 103.821,87.6946 103.5,82.5 Z"/></g>
<g><path style="opacity:0.859" fill="#767676" d="M 37.5,92.5 C 40.9917,94.0804 45.9917,94.7471 52.5,94.5C 47.2133,96.9837 42.2133,96.317 37.5,92.5 Z"/></g>
<g><path style="opacity:0.857" fill="#7f7f7f" d="M 70.5,95.5 C 73.6795,96.3928 76.8462,97.3928 80,98.5C 81.2575,98.8499 81.5908,99.5165 81,100.5C 76.7195,99.2275 72.5528,97.8942 68.5,96.5C 69.4916,96.6716 70.1583,96.3382 70.5,95.5 Z"/></g>
<g><path style="opacity:0.722" fill="#888888" d="M 7.5,93.5 C 7.55999,92.9569 7.89333,92.6236 8.5,92.5C 15.5102,96.1718 22.8435,99.0052 30.5,101C 21.7636,101.588 14.0969,99.0875 7.5,93.5 Z"/></g>
<g><path style="opacity:0.235" fill="#8a8a8a" d="M 43.5,102.5 C 42.5,102.5 41.5,102.5 40.5,102.5C 41.5,99.8333 42.5,99.8333 43.5,102.5 Z"/></g>
</svg>
